G75*
%MOIN*%
%OFA0B0*%
%FSLAX25Y25*%
%IPPOS*%
%LPD*%
%AMOC8*
5,1,8,0,0,1.08239X$1,22.5*
%
%ADD10C,0.03564*%
%ADD11R,0.02362X0.05906*%
%ADD12C,0.02339*%
%ADD13C,0.02728*%
%ADD14R,0.07100X0.07100*%
%ADD15C,0.07100*%
D10*
X0052332Y0037518D02*
X0052368Y0037518D01*
X0052368Y0035082D01*
X0052332Y0035082D01*
X0052332Y0037518D01*
X0060232Y0037518D02*
X0060268Y0037518D01*
X0060268Y0035082D01*
X0060232Y0035082D01*
X0060232Y0037518D01*
X0150018Y0047332D02*
X0150018Y0047368D01*
X0150018Y0047332D02*
X0147582Y0047332D01*
X0147582Y0047368D01*
X0150018Y0047368D01*
X0150018Y0055232D02*
X0150018Y0055268D01*
X0150018Y0055232D02*
X0147582Y0055232D01*
X0147582Y0055268D01*
X0150018Y0055268D01*
X0152332Y0015082D02*
X0152368Y0015082D01*
X0152332Y0015082D02*
X0152332Y0017518D01*
X0152368Y0017518D01*
X0152368Y0015082D01*
X0160232Y0015082D02*
X0160268Y0015082D01*
X0160232Y0015082D02*
X0160232Y0017518D01*
X0160268Y0017518D01*
X0160268Y0015082D01*
X0167332Y0015082D02*
X0167368Y0015082D01*
X0167332Y0015082D02*
X0167332Y0017518D01*
X0167368Y0017518D01*
X0167368Y0015082D01*
X0175232Y0015082D02*
X0175268Y0015082D01*
X0175232Y0015082D02*
X0175232Y0017518D01*
X0175268Y0017518D01*
X0175268Y0015082D01*
D11*
X0138800Y0017599D03*
D12*
X0093812Y0019383D02*
X0093812Y0015815D01*
X0093788Y0015815D01*
X0093788Y0019383D01*
X0093812Y0019383D01*
X0093812Y0018153D02*
X0093788Y0018153D01*
X0098812Y0019383D02*
X0098812Y0015815D01*
X0098788Y0015815D01*
X0098788Y0019383D01*
X0098812Y0019383D01*
X0098812Y0018153D02*
X0098788Y0018153D01*
X0103812Y0019383D02*
X0103812Y0015815D01*
X0103788Y0015815D01*
X0103788Y0019383D01*
X0103812Y0019383D01*
X0103812Y0018153D02*
X0103788Y0018153D01*
X0108812Y0019383D02*
X0108812Y0015815D01*
X0108788Y0015815D01*
X0108788Y0019383D01*
X0108812Y0019383D01*
X0108812Y0018153D02*
X0108788Y0018153D01*
X0113812Y0019383D02*
X0113812Y0015815D01*
X0113788Y0015815D01*
X0113788Y0019383D01*
X0113812Y0019383D01*
X0113812Y0018153D02*
X0113788Y0018153D01*
X0118812Y0019383D02*
X0118812Y0015815D01*
X0118788Y0015815D01*
X0118788Y0019383D01*
X0118812Y0019383D01*
X0118812Y0018153D02*
X0118788Y0018153D01*
X0123812Y0019383D02*
X0123812Y0015815D01*
X0123788Y0015815D01*
X0123788Y0019383D01*
X0123812Y0019383D01*
X0123812Y0018153D02*
X0123788Y0018153D01*
X0128812Y0019383D02*
X0128812Y0015815D01*
X0128788Y0015815D01*
X0128788Y0019383D01*
X0128812Y0019383D01*
X0128812Y0018153D02*
X0128788Y0018153D01*
X0133812Y0019383D02*
X0133812Y0015815D01*
X0133788Y0015815D01*
X0133788Y0019383D01*
X0133812Y0019383D01*
X0133812Y0018153D02*
X0133788Y0018153D01*
X0133812Y0053217D02*
X0133812Y0056785D01*
X0133812Y0053217D02*
X0133788Y0053217D01*
X0133788Y0056785D01*
X0133812Y0056785D01*
X0133812Y0055555D02*
X0133788Y0055555D01*
X0138812Y0056785D02*
X0138812Y0053217D01*
X0138788Y0053217D01*
X0138788Y0056785D01*
X0138812Y0056785D01*
X0138812Y0055555D02*
X0138788Y0055555D01*
X0128812Y0056785D02*
X0128812Y0053217D01*
X0128788Y0053217D01*
X0128788Y0056785D01*
X0128812Y0056785D01*
X0128812Y0055555D02*
X0128788Y0055555D01*
X0123812Y0056785D02*
X0123812Y0053217D01*
X0123788Y0053217D01*
X0123788Y0056785D01*
X0123812Y0056785D01*
X0123812Y0055555D02*
X0123788Y0055555D01*
X0118812Y0056785D02*
X0118812Y0053217D01*
X0118788Y0053217D01*
X0118788Y0056785D01*
X0118812Y0056785D01*
X0118812Y0055555D02*
X0118788Y0055555D01*
X0113812Y0056785D02*
X0113812Y0053217D01*
X0113788Y0053217D01*
X0113788Y0056785D01*
X0113812Y0056785D01*
X0113812Y0055555D02*
X0113788Y0055555D01*
X0108812Y0056785D02*
X0108812Y0053217D01*
X0108788Y0053217D01*
X0108788Y0056785D01*
X0108812Y0056785D01*
X0108812Y0055555D02*
X0108788Y0055555D01*
X0103812Y0056785D02*
X0103812Y0053217D01*
X0103788Y0053217D01*
X0103788Y0056785D01*
X0103812Y0056785D01*
X0103812Y0055555D02*
X0103788Y0055555D01*
X0098812Y0056785D02*
X0098812Y0053217D01*
X0098788Y0053217D01*
X0098788Y0056785D01*
X0098812Y0056785D01*
X0098812Y0055555D02*
X0098788Y0055555D01*
X0093812Y0056785D02*
X0093812Y0053217D01*
X0093788Y0053217D01*
X0093788Y0056785D01*
X0093812Y0056785D01*
X0093812Y0055555D02*
X0093788Y0055555D01*
D13*
X0060054Y0055420D02*
X0060026Y0055420D01*
X0060026Y0056628D01*
X0060054Y0056628D01*
X0060054Y0055420D01*
X0056314Y0055420D02*
X0056286Y0055420D01*
X0056286Y0056628D01*
X0056314Y0056628D01*
X0056314Y0055420D01*
X0052574Y0055420D02*
X0052546Y0055420D01*
X0052546Y0056628D01*
X0052574Y0056628D01*
X0052574Y0055420D01*
X0052574Y0045972D02*
X0052546Y0045972D01*
X0052546Y0047180D01*
X0052574Y0047180D01*
X0052574Y0045972D01*
X0060026Y0045972D02*
X0060054Y0045972D01*
X0060026Y0045972D02*
X0060026Y0047180D01*
X0060054Y0047180D01*
X0060054Y0045972D01*
D14*
X0177050Y0051300D03*
D15*
X0160550Y0051300D03*
X0160550Y0031300D03*
X0177050Y0031300D03*
M02*
