G75*
%MOIN*%
%OFA0B0*%
%FSLAX25Y25*%
%IPPOS*%
%LPD*%
%AMOC8*
5,1,8,0,0,1.08239X$1,22.5*
%
%ADD10C,0.04059*%
%ADD11C,0.06500*%
%ADD12R,0.06406X0.06406*%
%ADD13C,0.06406*%
%ADD14R,0.02862X0.06406*%
%ADD15C,0.02834*%
%ADD16C,0.03223*%
%ADD17R,0.07600X0.07600*%
%ADD18C,0.07600*%
D10*
X0052329Y0037521D02*
X0052371Y0037521D01*
X0052371Y0035079D01*
X0052329Y0035079D01*
X0052329Y0037521D01*
X0060229Y0037521D02*
X0060271Y0037521D01*
X0060271Y0035079D01*
X0060229Y0035079D01*
X0060229Y0037521D01*
X0150021Y0047329D02*
X0150021Y0047371D01*
X0150021Y0047329D02*
X0147579Y0047329D01*
X0147579Y0047371D01*
X0150021Y0047371D01*
X0150021Y0055229D02*
X0150021Y0055271D01*
X0150021Y0055229D02*
X0147579Y0055229D01*
X0147579Y0055271D01*
X0150021Y0055271D01*
X0152329Y0015079D02*
X0152371Y0015079D01*
X0152329Y0015079D02*
X0152329Y0017521D01*
X0152371Y0017521D01*
X0152371Y0015079D01*
X0160229Y0015079D02*
X0160271Y0015079D01*
X0160229Y0015079D02*
X0160229Y0017521D01*
X0160271Y0017521D01*
X0160271Y0015079D01*
X0167329Y0015079D02*
X0167371Y0015079D01*
X0167329Y0015079D02*
X0167329Y0017521D01*
X0167371Y0017521D01*
X0167371Y0015079D01*
X0175229Y0015079D02*
X0175271Y0015079D01*
X0175229Y0015079D02*
X0175229Y0017521D01*
X0175271Y0017521D01*
X0175271Y0015079D01*
D11*
X0188300Y0021300D02*
X0194300Y0021300D01*
X0194300Y0031300D02*
X0188300Y0031300D01*
X0188300Y0041300D02*
X0194300Y0041300D01*
X0194300Y0051300D02*
X0188300Y0051300D01*
D12*
X0006300Y0006300D03*
D13*
X0016300Y0006300D03*
X0026300Y0006300D03*
X0036300Y0006300D03*
X0046300Y0006300D03*
X0056300Y0006300D03*
X0066300Y0006300D03*
X0076300Y0006300D03*
X0086300Y0006300D03*
X0096300Y0006300D03*
X0106300Y0006300D03*
X0116300Y0006300D03*
X0126300Y0006300D03*
X0136300Y0006300D03*
X0146300Y0006300D03*
X0156300Y0006300D03*
X0166300Y0006300D03*
X0176300Y0006300D03*
X0186300Y0006300D03*
X0196300Y0006300D03*
X0196300Y0066300D03*
X0186300Y0066300D03*
X0176300Y0066300D03*
X0166300Y0066300D03*
X0156300Y0066300D03*
X0146300Y0066300D03*
X0136300Y0066300D03*
X0126300Y0066300D03*
X0116300Y0066300D03*
X0106300Y0066300D03*
X0096300Y0066300D03*
X0086300Y0066300D03*
X0076300Y0066300D03*
X0066300Y0066300D03*
X0056300Y0066300D03*
X0046300Y0066300D03*
X0036300Y0066300D03*
X0026300Y0066300D03*
X0016300Y0066300D03*
X0006300Y0066300D03*
D14*
X0138800Y0017599D03*
D15*
X0133814Y0019385D02*
X0133814Y0015813D01*
X0133786Y0015813D01*
X0133786Y0019385D01*
X0133814Y0019385D01*
X0133814Y0018646D02*
X0133786Y0018646D01*
X0128814Y0019385D02*
X0128814Y0015813D01*
X0128786Y0015813D01*
X0128786Y0019385D01*
X0128814Y0019385D01*
X0128814Y0018646D02*
X0128786Y0018646D01*
X0123814Y0019385D02*
X0123814Y0015813D01*
X0123786Y0015813D01*
X0123786Y0019385D01*
X0123814Y0019385D01*
X0123814Y0018646D02*
X0123786Y0018646D01*
X0118814Y0019385D02*
X0118814Y0015813D01*
X0118786Y0015813D01*
X0118786Y0019385D01*
X0118814Y0019385D01*
X0118814Y0018646D02*
X0118786Y0018646D01*
X0113814Y0019385D02*
X0113814Y0015813D01*
X0113786Y0015813D01*
X0113786Y0019385D01*
X0113814Y0019385D01*
X0113814Y0018646D02*
X0113786Y0018646D01*
X0108814Y0019385D02*
X0108814Y0015813D01*
X0108786Y0015813D01*
X0108786Y0019385D01*
X0108814Y0019385D01*
X0108814Y0018646D02*
X0108786Y0018646D01*
X0103814Y0019385D02*
X0103814Y0015813D01*
X0103786Y0015813D01*
X0103786Y0019385D01*
X0103814Y0019385D01*
X0103814Y0018646D02*
X0103786Y0018646D01*
X0098814Y0019385D02*
X0098814Y0015813D01*
X0098786Y0015813D01*
X0098786Y0019385D01*
X0098814Y0019385D01*
X0098814Y0018646D02*
X0098786Y0018646D01*
X0093814Y0019385D02*
X0093814Y0015813D01*
X0093786Y0015813D01*
X0093786Y0019385D01*
X0093814Y0019385D01*
X0093814Y0018646D02*
X0093786Y0018646D01*
X0093814Y0053215D02*
X0093814Y0056787D01*
X0093814Y0053215D02*
X0093786Y0053215D01*
X0093786Y0056787D01*
X0093814Y0056787D01*
X0093814Y0056048D02*
X0093786Y0056048D01*
X0098814Y0056787D02*
X0098814Y0053215D01*
X0098786Y0053215D01*
X0098786Y0056787D01*
X0098814Y0056787D01*
X0098814Y0056048D02*
X0098786Y0056048D01*
X0103814Y0056787D02*
X0103814Y0053215D01*
X0103786Y0053215D01*
X0103786Y0056787D01*
X0103814Y0056787D01*
X0103814Y0056048D02*
X0103786Y0056048D01*
X0108814Y0056787D02*
X0108814Y0053215D01*
X0108786Y0053215D01*
X0108786Y0056787D01*
X0108814Y0056787D01*
X0108814Y0056048D02*
X0108786Y0056048D01*
X0113814Y0056787D02*
X0113814Y0053215D01*
X0113786Y0053215D01*
X0113786Y0056787D01*
X0113814Y0056787D01*
X0113814Y0056048D02*
X0113786Y0056048D01*
X0118814Y0056787D02*
X0118814Y0053215D01*
X0118786Y0053215D01*
X0118786Y0056787D01*
X0118814Y0056787D01*
X0118814Y0056048D02*
X0118786Y0056048D01*
X0123814Y0056787D02*
X0123814Y0053215D01*
X0123786Y0053215D01*
X0123786Y0056787D01*
X0123814Y0056787D01*
X0123814Y0056048D02*
X0123786Y0056048D01*
X0128814Y0056787D02*
X0128814Y0053215D01*
X0128786Y0053215D01*
X0128786Y0056787D01*
X0128814Y0056787D01*
X0128814Y0056048D02*
X0128786Y0056048D01*
X0133814Y0056787D02*
X0133814Y0053215D01*
X0133786Y0053215D01*
X0133786Y0056787D01*
X0133814Y0056787D01*
X0133814Y0056048D02*
X0133786Y0056048D01*
X0138814Y0056787D02*
X0138814Y0053215D01*
X0138786Y0053215D01*
X0138786Y0056787D01*
X0138814Y0056787D01*
X0138814Y0056048D02*
X0138786Y0056048D01*
D16*
X0060057Y0055417D02*
X0060023Y0055417D01*
X0060023Y0056631D01*
X0060057Y0056631D01*
X0060057Y0055417D01*
X0056317Y0055417D02*
X0056283Y0055417D01*
X0056283Y0056631D01*
X0056317Y0056631D01*
X0056317Y0055417D01*
X0052577Y0055417D02*
X0052543Y0055417D01*
X0052543Y0056631D01*
X0052577Y0056631D01*
X0052577Y0055417D01*
X0052577Y0045969D02*
X0052543Y0045969D01*
X0052543Y0047183D01*
X0052577Y0047183D01*
X0052577Y0045969D01*
X0060023Y0045969D02*
X0060057Y0045969D01*
X0060023Y0045969D02*
X0060023Y0047183D01*
X0060057Y0047183D01*
X0060057Y0045969D01*
D17*
X0177050Y0051300D03*
D18*
X0160550Y0051300D03*
X0160550Y0031300D03*
X0177050Y0031300D03*
M02*
