G75*
%MOIN*%
%OFA0B0*%
%FSLAX25Y25*%
%IPPOS*%
%LPD*%
%AMOC8*
5,1,8,0,0,1.08239X$1,22.5*
%
%ADD10C,0.03564*%
%ADD11C,0.06000*%
%ADD12R,0.05906X0.05906*%
%ADD13C,0.05906*%
%ADD14R,0.02362X0.05906*%
%ADD15C,0.02339*%
%ADD16C,0.02728*%
%ADD17R,0.07100X0.07100*%
%ADD18C,0.07100*%
%ADD19C,0.00600*%
%ADD20C,0.02200*%
D10*
X0052332Y0037518D02*
X0052368Y0037518D01*
X0052368Y0035082D01*
X0052332Y0035082D01*
X0052332Y0037518D01*
X0060232Y0037518D02*
X0060268Y0037518D01*
X0060268Y0035082D01*
X0060232Y0035082D01*
X0060232Y0037518D01*
X0150018Y0047332D02*
X0150018Y0047368D01*
X0150018Y0047332D02*
X0147582Y0047332D01*
X0147582Y0047368D01*
X0150018Y0047368D01*
X0150018Y0055232D02*
X0150018Y0055268D01*
X0150018Y0055232D02*
X0147582Y0055232D01*
X0147582Y0055268D01*
X0150018Y0055268D01*
X0152332Y0015082D02*
X0152368Y0015082D01*
X0152332Y0015082D02*
X0152332Y0017518D01*
X0152368Y0017518D01*
X0152368Y0015082D01*
X0160232Y0015082D02*
X0160268Y0015082D01*
X0160232Y0015082D02*
X0160232Y0017518D01*
X0160268Y0017518D01*
X0160268Y0015082D01*
X0167332Y0015082D02*
X0167368Y0015082D01*
X0167332Y0015082D02*
X0167332Y0017518D01*
X0167368Y0017518D01*
X0167368Y0015082D01*
X0175232Y0015082D02*
X0175268Y0015082D01*
X0175232Y0015082D02*
X0175232Y0017518D01*
X0175268Y0017518D01*
X0175268Y0015082D01*
D11*
X0188300Y0021300D02*
X0194300Y0021300D01*
X0194300Y0031300D02*
X0188300Y0031300D01*
X0188300Y0041300D02*
X0194300Y0041300D01*
X0194300Y0051300D02*
X0188300Y0051300D01*
D12*
X0006300Y0006300D03*
D13*
X0016300Y0006300D03*
X0026300Y0006300D03*
X0036300Y0006300D03*
X0046300Y0006300D03*
X0056300Y0006300D03*
X0066300Y0006300D03*
X0076300Y0006300D03*
X0086300Y0006300D03*
X0096300Y0006300D03*
X0106300Y0006300D03*
X0116300Y0006300D03*
X0126300Y0006300D03*
X0136300Y0006300D03*
X0146300Y0006300D03*
X0156300Y0006300D03*
X0166300Y0006300D03*
X0176300Y0006300D03*
X0186300Y0006300D03*
X0196300Y0006300D03*
X0196300Y0066300D03*
X0186300Y0066300D03*
X0176300Y0066300D03*
X0166300Y0066300D03*
X0156300Y0066300D03*
X0146300Y0066300D03*
X0136300Y0066300D03*
X0126300Y0066300D03*
X0116300Y0066300D03*
X0106300Y0066300D03*
X0096300Y0066300D03*
X0086300Y0066300D03*
X0076300Y0066300D03*
X0066300Y0066300D03*
X0056300Y0066300D03*
X0046300Y0066300D03*
X0036300Y0066300D03*
X0026300Y0066300D03*
X0016300Y0066300D03*
X0006300Y0066300D03*
D14*
X0138800Y0017599D03*
D15*
X0133812Y0019383D02*
X0133812Y0015815D01*
X0133788Y0015815D01*
X0133788Y0019383D01*
X0133812Y0019383D01*
X0133812Y0018153D02*
X0133788Y0018153D01*
X0128812Y0019383D02*
X0128812Y0015815D01*
X0128788Y0015815D01*
X0128788Y0019383D01*
X0128812Y0019383D01*
X0128812Y0018153D02*
X0128788Y0018153D01*
X0123812Y0019383D02*
X0123812Y0015815D01*
X0123788Y0015815D01*
X0123788Y0019383D01*
X0123812Y0019383D01*
X0123812Y0018153D02*
X0123788Y0018153D01*
X0118812Y0019383D02*
X0118812Y0015815D01*
X0118788Y0015815D01*
X0118788Y0019383D01*
X0118812Y0019383D01*
X0118812Y0018153D02*
X0118788Y0018153D01*
X0113812Y0019383D02*
X0113812Y0015815D01*
X0113788Y0015815D01*
X0113788Y0019383D01*
X0113812Y0019383D01*
X0113812Y0018153D02*
X0113788Y0018153D01*
X0108812Y0019383D02*
X0108812Y0015815D01*
X0108788Y0015815D01*
X0108788Y0019383D01*
X0108812Y0019383D01*
X0108812Y0018153D02*
X0108788Y0018153D01*
X0103812Y0019383D02*
X0103812Y0015815D01*
X0103788Y0015815D01*
X0103788Y0019383D01*
X0103812Y0019383D01*
X0103812Y0018153D02*
X0103788Y0018153D01*
X0098812Y0019383D02*
X0098812Y0015815D01*
X0098788Y0015815D01*
X0098788Y0019383D01*
X0098812Y0019383D01*
X0098812Y0018153D02*
X0098788Y0018153D01*
X0093812Y0019383D02*
X0093812Y0015815D01*
X0093788Y0015815D01*
X0093788Y0019383D01*
X0093812Y0019383D01*
X0093812Y0018153D02*
X0093788Y0018153D01*
X0093812Y0053217D02*
X0093812Y0056785D01*
X0093812Y0053217D02*
X0093788Y0053217D01*
X0093788Y0056785D01*
X0093812Y0056785D01*
X0093812Y0055555D02*
X0093788Y0055555D01*
X0098812Y0056785D02*
X0098812Y0053217D01*
X0098788Y0053217D01*
X0098788Y0056785D01*
X0098812Y0056785D01*
X0098812Y0055555D02*
X0098788Y0055555D01*
X0103812Y0056785D02*
X0103812Y0053217D01*
X0103788Y0053217D01*
X0103788Y0056785D01*
X0103812Y0056785D01*
X0103812Y0055555D02*
X0103788Y0055555D01*
X0108812Y0056785D02*
X0108812Y0053217D01*
X0108788Y0053217D01*
X0108788Y0056785D01*
X0108812Y0056785D01*
X0108812Y0055555D02*
X0108788Y0055555D01*
X0113812Y0056785D02*
X0113812Y0053217D01*
X0113788Y0053217D01*
X0113788Y0056785D01*
X0113812Y0056785D01*
X0113812Y0055555D02*
X0113788Y0055555D01*
X0118812Y0056785D02*
X0118812Y0053217D01*
X0118788Y0053217D01*
X0118788Y0056785D01*
X0118812Y0056785D01*
X0118812Y0055555D02*
X0118788Y0055555D01*
X0123812Y0056785D02*
X0123812Y0053217D01*
X0123788Y0053217D01*
X0123788Y0056785D01*
X0123812Y0056785D01*
X0123812Y0055555D02*
X0123788Y0055555D01*
X0128812Y0056785D02*
X0128812Y0053217D01*
X0128788Y0053217D01*
X0128788Y0056785D01*
X0128812Y0056785D01*
X0128812Y0055555D02*
X0128788Y0055555D01*
X0133812Y0056785D02*
X0133812Y0053217D01*
X0133788Y0053217D01*
X0133788Y0056785D01*
X0133812Y0056785D01*
X0133812Y0055555D02*
X0133788Y0055555D01*
X0138812Y0056785D02*
X0138812Y0053217D01*
X0138788Y0053217D01*
X0138788Y0056785D01*
X0138812Y0056785D01*
X0138812Y0055555D02*
X0138788Y0055555D01*
D16*
X0060054Y0055420D02*
X0060026Y0055420D01*
X0060026Y0056628D01*
X0060054Y0056628D01*
X0060054Y0055420D01*
X0056314Y0055420D02*
X0056286Y0055420D01*
X0056286Y0056628D01*
X0056314Y0056628D01*
X0056314Y0055420D01*
X0052574Y0055420D02*
X0052546Y0055420D01*
X0052546Y0056628D01*
X0052574Y0056628D01*
X0052574Y0055420D01*
X0052574Y0045972D02*
X0052546Y0045972D01*
X0052546Y0047180D01*
X0052574Y0047180D01*
X0052574Y0045972D01*
X0060026Y0045972D02*
X0060054Y0045972D01*
X0060026Y0045972D02*
X0060026Y0047180D01*
X0060054Y0047180D01*
X0060054Y0045972D01*
D17*
X0177050Y0051300D03*
D18*
X0160550Y0051300D03*
X0160550Y0031300D03*
X0177050Y0031300D03*
D19*
X0177550Y0030800D01*
X0177550Y0024425D01*
X0183175Y0031300D02*
X0183175Y0016300D01*
X0175250Y0016300D01*
X0175250Y0011300D01*
X0160250Y0011300D01*
X0160250Y0016300D01*
X0167350Y0016300D02*
X0167350Y0041300D01*
X0191300Y0041300D01*
X0187550Y0051300D02*
X0180050Y0043800D01*
X0150675Y0043800D01*
X0128800Y0021925D01*
X0128800Y0017599D01*
X0128800Y0011300D01*
X0152350Y0011300D01*
X0152350Y0016300D01*
X0138800Y0017599D02*
X0138800Y0023175D01*
X0146925Y0031300D01*
X0160550Y0031300D01*
X0183175Y0031300D02*
X0191300Y0031300D01*
X0196300Y0031300D01*
X0199425Y0034425D01*
X0199425Y0055675D01*
X0195050Y0060050D01*
X0148800Y0060050D01*
X0148800Y0055250D01*
X0148551Y0055001D01*
X0138800Y0055001D01*
X0138800Y0045050D01*
X0111925Y0045050D01*
X0108800Y0041925D01*
X0080675Y0041925D01*
X0071925Y0041925D02*
X0052350Y0041925D01*
X0052350Y0036300D01*
X0052350Y0046366D01*
X0052560Y0046576D01*
X0052560Y0056024D01*
X0056300Y0056024D02*
X0056300Y0066300D01*
X0046300Y0066300D02*
X0046300Y0054425D01*
X0049425Y0051300D01*
X0055675Y0051300D02*
X0071925Y0051300D01*
X0080675Y0051300D02*
X0083175Y0051300D01*
X0086925Y0047550D01*
X0125675Y0047550D01*
X0128800Y0050675D01*
X0128800Y0055001D01*
X0123800Y0055001D02*
X0123800Y0050050D01*
X0118800Y0050050D02*
X0118800Y0055001D01*
X0113800Y0055001D02*
X0113800Y0058800D01*
X0115675Y0060675D01*
X0130675Y0060675D01*
X0136300Y0066300D01*
X0126300Y0066300D02*
X0121925Y0061925D01*
X0111925Y0061925D01*
X0108800Y0058800D01*
X0108800Y0055001D01*
X0103800Y0055001D02*
X0103800Y0058800D01*
X0106925Y0061925D01*
X0108800Y0061925D01*
X0113175Y0066300D01*
X0116300Y0066300D01*
X0106300Y0066300D02*
X0098800Y0058800D01*
X0098800Y0055001D01*
X0093800Y0055001D02*
X0093800Y0063800D01*
X0096300Y0066300D01*
X0086300Y0066300D02*
X0077550Y0057550D01*
X0077550Y0030050D01*
X0080050Y0027550D01*
X0091300Y0027550D01*
X0095050Y0027550D01*
X0098800Y0023800D01*
X0098800Y0017599D01*
X0098800Y0020050D01*
X0093800Y0017599D02*
X0093800Y0023175D01*
X0103800Y0017599D02*
X0103800Y0015675D01*
X0101300Y0013175D01*
X0092550Y0013175D01*
X0076300Y0029425D01*
X0076300Y0066300D01*
X0075050Y0057550D02*
X0066300Y0066300D01*
X0075050Y0057550D02*
X0075050Y0028800D01*
X0091925Y0011925D01*
X0103126Y0011925D01*
X0108800Y0017599D01*
X0113800Y0017599D02*
X0113800Y0011925D01*
X0112550Y0010675D01*
X0090675Y0010675D01*
X0086300Y0006300D01*
X0056300Y0006300D02*
X0056300Y0019425D01*
X0070050Y0033175D01*
X0071925Y0033175D01*
X0080675Y0033175D02*
X0115675Y0033175D01*
X0123800Y0041300D01*
X0118800Y0041300D02*
X0118800Y0038800D01*
X0117550Y0037550D01*
X0080675Y0037550D01*
X0071925Y0037550D02*
X0046300Y0011925D01*
X0046300Y0006300D01*
X0123800Y0017599D02*
X0123800Y0023800D01*
X0138800Y0038800D01*
X0138800Y0045050D01*
X0143175Y0047550D02*
X0148600Y0047550D01*
X0148800Y0047350D01*
X0152750Y0051300D02*
X0160550Y0051300D01*
X0177050Y0051300D01*
X0187550Y0051300D02*
X0191300Y0051300D01*
X0167350Y0041300D02*
X0151925Y0041300D01*
X0133800Y0023175D01*
X0133800Y0017599D01*
X0064425Y0036300D02*
X0060250Y0036300D01*
X0060390Y0046300D02*
X0060040Y0046576D01*
X0060390Y0046300D02*
X0071925Y0046300D01*
X0080675Y0046300D02*
X0130675Y0046300D01*
X0133800Y0049425D01*
X0133800Y0055001D01*
X0148800Y0055250D02*
X0152750Y0051300D01*
X0148800Y0060050D02*
X0148800Y0063800D01*
X0146300Y0066300D01*
X0063800Y0055675D02*
X0060390Y0055675D01*
X0060040Y0056024D01*
D20*
X0063800Y0055675D03*
X0055675Y0051300D03*
X0049425Y0051300D03*
X0071925Y0051300D03*
X0080675Y0051300D03*
X0080675Y0046300D03*
X0071925Y0046300D03*
X0071925Y0041925D03*
X0080675Y0041925D03*
X0080675Y0037550D03*
X0071925Y0037550D03*
X0064425Y0036300D03*
X0071925Y0033175D03*
X0080675Y0033175D03*
X0093800Y0023175D03*
X0118800Y0041300D03*
X0123800Y0041300D03*
X0143175Y0047550D03*
X0123800Y0050050D03*
X0118800Y0050050D03*
X0177550Y0024425D03*
M02*
