%
M48
M72
T01C0.0120
T02C0.0394
T03C0.0400
%
T01
X7193Y3318
X8068Y3318
X8068Y3755
X7193Y3755
X6443Y3630
X7193Y4193
X8068Y4193
X8068Y4630
X7193Y4630
X7193Y5130
X8068Y5130
X6380Y5568
X5568Y5130
X4943Y5130
X11880Y5005
X12380Y5005
X14318Y4755
X12380Y4130
X11880Y4130
X9380Y2318
X17755Y2443
T02
X630Y630
X1630Y630
X2630Y630
X3630Y630
X4630Y630
X5630Y630
X6630Y630
X7630Y630
X8630Y630
X9630Y630
X10630Y630
X11630Y630
X12630Y630
X13630Y630
X14630Y630
X15630Y630
X16630Y630
X17630Y630
X18630Y630
X19630Y630
X19630Y6630
X18630Y6630
X17630Y6630
X16630Y6630
X15630Y6630
X14630Y6630
X13630Y6630
X12630Y6630
X11630Y6630
X10630Y6630
X9630Y6630
X8630Y6630
X7630Y6630
X6630Y6630
X5630Y6630
X4630Y6630
X3630Y6630
X2630Y6630
X1630Y6630
X630Y6630
T03
X19130Y5130
X19130Y4130
X19130Y3130
X19130Y2130
M30
