G75*
%MOIN*%
%OFA0B0*%
%FSLAX25Y25*%
%IPPOS*%
%LPD*%
%AMOC8*
5,1,8,0,0,1.08239X$1,22.5*
%
%ADD10C,0.00400*%
%ADD11C,0.00600*%
%ADD12C,0.00500*%
D10*
X0007121Y0013375D02*
X0007121Y0015677D01*
X0007888Y0016444D01*
X0009423Y0016444D01*
X0010190Y0015677D01*
X0010190Y0013375D01*
X0011725Y0013375D02*
X0007121Y0013375D01*
X0008656Y0017979D02*
X0008656Y0018746D01*
X0011725Y0018746D01*
X0011725Y0017979D02*
X0011725Y0019514D01*
X0011725Y0021048D02*
X0008656Y0021048D01*
X0008656Y0023350D01*
X0009423Y0024117D01*
X0011725Y0024117D01*
X0011725Y0030256D02*
X0011725Y0033325D01*
X0011725Y0031791D02*
X0007121Y0031791D01*
X0008656Y0030256D01*
X0026500Y0030535D02*
X0028802Y0030535D01*
X0029569Y0031302D01*
X0029569Y0032837D01*
X0028802Y0033604D01*
X0026500Y0033604D01*
X0026500Y0029000D01*
X0031104Y0029000D02*
X0032639Y0029000D01*
X0031871Y0029000D02*
X0031871Y0033604D01*
X0031104Y0033604D01*
X0034173Y0032069D02*
X0034173Y0029767D01*
X0034941Y0029000D01*
X0037242Y0029000D01*
X0037242Y0032069D01*
X0038777Y0031302D02*
X0038777Y0029767D01*
X0039544Y0029000D01*
X0041846Y0029000D01*
X0041846Y0028233D02*
X0041846Y0032069D01*
X0039544Y0032069D01*
X0038777Y0031302D01*
X0047985Y0032069D02*
X0048752Y0032069D01*
X0048752Y0029000D01*
X0047985Y0029000D02*
X0049520Y0029000D01*
X0051054Y0029000D02*
X0051054Y0032069D01*
X0053356Y0032069D01*
X0054124Y0031302D01*
X0054124Y0029000D01*
X0055658Y0029000D02*
X0057960Y0029000D01*
X0058727Y0029767D01*
X0057960Y0030535D01*
X0056425Y0030535D01*
X0055658Y0031302D01*
X0056425Y0032069D01*
X0058727Y0032069D01*
X0060262Y0032069D02*
X0061797Y0032069D01*
X0061029Y0032837D02*
X0061029Y0029767D01*
X0061797Y0029000D01*
X0063331Y0029767D02*
X0064099Y0029000D01*
X0065633Y0029000D01*
X0067935Y0029767D02*
X0068703Y0029000D01*
X0071005Y0029000D01*
X0071005Y0031302D01*
X0070237Y0032069D01*
X0068703Y0032069D01*
X0066401Y0031302D02*
X0066401Y0030535D01*
X0063331Y0030535D01*
X0063331Y0031302D02*
X0063331Y0029767D01*
X0063331Y0031302D02*
X0064099Y0032069D01*
X0065633Y0032069D01*
X0066401Y0031302D01*
X0067935Y0029767D02*
X0068703Y0030535D01*
X0071005Y0030535D01*
X0072539Y0029767D02*
X0072539Y0031302D01*
X0073307Y0032069D01*
X0075609Y0032069D01*
X0075609Y0033604D02*
X0075609Y0029000D01*
X0073307Y0029000D01*
X0072539Y0029767D01*
X0081747Y0029767D02*
X0082514Y0029000D01*
X0084049Y0029000D01*
X0084816Y0029767D01*
X0084816Y0031302D01*
X0084049Y0032069D01*
X0082514Y0032069D01*
X0081747Y0031302D01*
X0081747Y0029767D01*
X0086351Y0031302D02*
X0087886Y0031302D01*
X0087118Y0032837D02*
X0087886Y0033604D01*
X0087118Y0032837D02*
X0087118Y0029000D01*
X0094024Y0029767D02*
X0094792Y0030535D01*
X0097093Y0030535D01*
X0097093Y0031302D02*
X0097093Y0029000D01*
X0094792Y0029000D01*
X0094024Y0029767D01*
X0096326Y0032069D02*
X0097093Y0031302D01*
X0096326Y0032069D02*
X0094792Y0032069D01*
X0103232Y0032069D02*
X0103232Y0032837D01*
X0103999Y0033604D01*
X0105534Y0033604D01*
X0106301Y0032837D01*
X0106301Y0032069D01*
X0105534Y0031302D01*
X0103999Y0031302D01*
X0103232Y0032069D01*
X0103999Y0031302D02*
X0103232Y0030535D01*
X0103232Y0029767D01*
X0103999Y0029000D01*
X0105534Y0029000D01*
X0106301Y0029767D01*
X0106301Y0030535D01*
X0105534Y0031302D01*
X0107836Y0032837D02*
X0108603Y0033604D01*
X0110138Y0033604D01*
X0110905Y0032837D01*
X0110905Y0032069D01*
X0107836Y0029000D01*
X0110905Y0029000D01*
X0112440Y0029767D02*
X0113207Y0029000D01*
X0114742Y0029000D01*
X0115509Y0029767D01*
X0115509Y0031302D01*
X0114742Y0032069D01*
X0113975Y0032069D01*
X0112440Y0031302D01*
X0112440Y0033604D01*
X0115509Y0033604D01*
X0117044Y0033604D02*
X0117044Y0031302D01*
X0118578Y0032069D01*
X0119346Y0032069D01*
X0120113Y0031302D01*
X0120113Y0029767D01*
X0119346Y0029000D01*
X0117811Y0029000D01*
X0117044Y0029767D01*
X0117044Y0033604D02*
X0120113Y0033604D01*
X0117044Y0037267D02*
X0116277Y0036500D01*
X0114742Y0036500D01*
X0113975Y0037267D01*
X0117044Y0040337D01*
X0117044Y0037267D01*
X0113975Y0037267D02*
X0113975Y0040337D01*
X0114742Y0041104D01*
X0116277Y0041104D01*
X0117044Y0040337D01*
X0112440Y0040337D02*
X0112440Y0039569D01*
X0111673Y0038802D01*
X0110138Y0038802D01*
X0109371Y0039569D01*
X0109371Y0040337D01*
X0110138Y0041104D01*
X0111673Y0041104D01*
X0112440Y0040337D01*
X0111673Y0038802D02*
X0112440Y0038035D01*
X0112440Y0037267D01*
X0111673Y0036500D01*
X0110138Y0036500D01*
X0109371Y0037267D01*
X0109371Y0038035D01*
X0110138Y0038802D01*
X0107836Y0040337D02*
X0107836Y0037267D01*
X0107069Y0036500D01*
X0105534Y0036500D01*
X0104767Y0037267D01*
X0107836Y0040337D01*
X0107069Y0041104D01*
X0105534Y0041104D01*
X0104767Y0040337D01*
X0104767Y0037267D01*
X0103232Y0037267D02*
X0102465Y0036500D01*
X0100930Y0036500D01*
X0100163Y0037267D01*
X0100163Y0038035D01*
X0100930Y0038802D01*
X0102465Y0038802D01*
X0103232Y0038035D01*
X0103232Y0037267D01*
X0102465Y0038802D02*
X0103232Y0039569D01*
X0103232Y0040337D01*
X0102465Y0041104D01*
X0100930Y0041104D01*
X0100163Y0040337D01*
X0100163Y0039569D01*
X0100930Y0038802D01*
X0094024Y0039569D02*
X0093257Y0039569D01*
X0091722Y0038035D01*
X0090188Y0037267D02*
X0090188Y0038802D01*
X0089420Y0039569D01*
X0087886Y0039569D01*
X0087118Y0038802D01*
X0087118Y0037267D01*
X0087886Y0036500D01*
X0089420Y0036500D01*
X0090188Y0037267D01*
X0091722Y0036500D02*
X0091722Y0039569D01*
X0085584Y0038802D02*
X0084049Y0038802D01*
X0084816Y0040337D02*
X0085584Y0041104D01*
X0084816Y0040337D02*
X0084816Y0036500D01*
X0077910Y0038035D02*
X0077910Y0038802D01*
X0077143Y0039569D01*
X0075609Y0039569D01*
X0074841Y0038802D01*
X0074841Y0037267D01*
X0075609Y0036500D01*
X0077143Y0036500D01*
X0077910Y0038035D02*
X0074841Y0038035D01*
X0073307Y0039569D02*
X0071005Y0039569D01*
X0070237Y0038802D01*
X0070237Y0037267D01*
X0071005Y0036500D01*
X0073307Y0036500D01*
X0068703Y0036500D02*
X0068703Y0038802D01*
X0067935Y0039569D01*
X0066401Y0039569D01*
X0064099Y0038802D02*
X0062564Y0038802D01*
X0061029Y0039569D02*
X0060262Y0039569D01*
X0058727Y0038035D01*
X0057193Y0038035D02*
X0054124Y0038035D01*
X0054124Y0038802D02*
X0054124Y0037267D01*
X0054891Y0036500D01*
X0056425Y0036500D01*
X0058727Y0036500D02*
X0058727Y0039569D01*
X0057193Y0038802D02*
X0057193Y0038035D01*
X0057193Y0038802D02*
X0056425Y0039569D01*
X0054891Y0039569D01*
X0054124Y0038802D01*
X0052589Y0039569D02*
X0051054Y0039569D01*
X0051822Y0040337D02*
X0051822Y0037267D01*
X0052589Y0036500D01*
X0049520Y0036500D02*
X0049520Y0038802D01*
X0048752Y0039569D01*
X0046450Y0039569D01*
X0046450Y0036500D01*
X0044916Y0036500D02*
X0043381Y0036500D01*
X0044148Y0036500D02*
X0044148Y0039569D01*
X0043381Y0039569D01*
X0044148Y0041104D02*
X0044148Y0041871D01*
X0037242Y0040337D02*
X0036475Y0041104D01*
X0034941Y0041104D01*
X0034173Y0040337D01*
X0034173Y0037267D01*
X0034941Y0036500D01*
X0036475Y0036500D01*
X0037242Y0037267D01*
X0032639Y0036500D02*
X0029569Y0036500D01*
X0032639Y0039569D01*
X0032639Y0040337D01*
X0031871Y0041104D01*
X0030337Y0041104D01*
X0029569Y0040337D01*
X0028035Y0041104D02*
X0026500Y0041104D01*
X0027267Y0041104D02*
X0027267Y0036500D01*
X0026500Y0036500D02*
X0028035Y0036500D01*
X0048752Y0034371D02*
X0048752Y0033604D01*
X0063331Y0036500D02*
X0063331Y0040337D01*
X0064099Y0041104D01*
X0066401Y0038035D02*
X0068703Y0038035D01*
X0066401Y0038035D02*
X0065633Y0037267D01*
X0066401Y0036500D01*
X0068703Y0036500D01*
X0041846Y0028233D02*
X0041079Y0027465D01*
X0040312Y0027465D01*
X0007121Y0018746D02*
X0006354Y0018746D01*
X0167688Y0019767D02*
X0168456Y0019000D01*
X0169990Y0019000D01*
X0170757Y0019767D01*
X0170757Y0021302D01*
X0169223Y0021302D01*
X0170757Y0022837D02*
X0169990Y0023604D01*
X0168456Y0023604D01*
X0167688Y0022837D01*
X0167688Y0019767D01*
X0172292Y0019000D02*
X0172292Y0023604D01*
X0175361Y0019000D01*
X0175361Y0023604D01*
X0176896Y0023604D02*
X0179198Y0023604D01*
X0179965Y0022837D01*
X0179965Y0019767D01*
X0179198Y0019000D01*
X0176896Y0019000D01*
X0176896Y0023604D01*
X0178431Y0029000D02*
X0179965Y0030535D01*
X0179965Y0033604D01*
X0176896Y0033604D02*
X0176896Y0030535D01*
X0178431Y0029000D01*
X0175361Y0029767D02*
X0174594Y0029000D01*
X0173059Y0029000D01*
X0172292Y0029767D01*
X0175361Y0029767D02*
X0175361Y0031302D01*
X0174594Y0032069D01*
X0173827Y0032069D01*
X0172292Y0031302D01*
X0172292Y0033604D01*
X0175361Y0033604D01*
X0170757Y0031302D02*
X0167688Y0031302D01*
X0169223Y0032837D02*
X0169223Y0029767D01*
X0169990Y0039000D02*
X0168456Y0039000D01*
X0167688Y0039767D01*
X0169990Y0039000D02*
X0170757Y0039767D01*
X0170757Y0040535D01*
X0169990Y0041302D01*
X0168456Y0041302D01*
X0167688Y0042069D01*
X0167688Y0042837D01*
X0168456Y0043604D01*
X0169990Y0043604D01*
X0170757Y0042837D01*
X0172292Y0043604D02*
X0174594Y0043604D01*
X0175361Y0042837D01*
X0175361Y0039767D01*
X0174594Y0039000D01*
X0172292Y0039000D01*
X0172292Y0043604D01*
X0176896Y0042069D02*
X0178431Y0043604D01*
X0179965Y0042069D01*
X0179965Y0039000D01*
X0176896Y0039000D02*
X0176896Y0042069D01*
X0176896Y0041302D02*
X0179965Y0041302D01*
X0179965Y0049000D02*
X0176896Y0049000D01*
X0176896Y0053604D01*
X0175361Y0052837D02*
X0174594Y0053604D01*
X0173059Y0053604D01*
X0172292Y0052837D01*
X0172292Y0049767D01*
X0173059Y0049000D01*
X0174594Y0049000D01*
X0175361Y0049767D01*
X0170757Y0049767D02*
X0169990Y0049000D01*
X0168456Y0049000D01*
X0167688Y0049767D01*
X0168456Y0051302D02*
X0169990Y0051302D01*
X0170757Y0050535D01*
X0170757Y0049767D01*
X0168456Y0051302D02*
X0167688Y0052069D01*
X0167688Y0052837D01*
X0168456Y0053604D01*
X0169990Y0053604D01*
X0170757Y0052837D01*
D11*
X0186300Y0053800D02*
X0186300Y0048800D01*
X0188800Y0046300D01*
X0186300Y0043800D01*
X0186300Y0038800D01*
X0188800Y0036300D01*
X0193800Y0036300D01*
X0196300Y0038800D01*
X0196300Y0043800D01*
X0193800Y0046300D01*
X0188800Y0046300D01*
X0193800Y0046300D02*
X0196300Y0048800D01*
X0196300Y0053800D01*
X0193800Y0056300D01*
X0188800Y0056300D01*
X0186300Y0053800D01*
X0188800Y0036300D02*
X0186300Y0033800D01*
X0186300Y0028800D01*
X0188800Y0026300D01*
X0186300Y0023800D01*
X0186300Y0018800D01*
X0188800Y0016300D01*
X0193800Y0016300D01*
X0196300Y0018800D01*
X0196300Y0023800D01*
X0193800Y0026300D01*
X0188800Y0026300D01*
X0193800Y0026300D02*
X0196300Y0028800D01*
X0196300Y0033800D01*
X0193800Y0036300D01*
D12*
X0001300Y0031300D02*
X0001300Y0011300D01*
X0201300Y0011300D01*
X0201300Y0061300D01*
X0001300Y0061300D01*
X0001300Y0041300D01*
X0006300Y0036300D02*
X0006298Y0036160D01*
X0006292Y0036020D01*
X0006282Y0035880D01*
X0006269Y0035740D01*
X0006251Y0035601D01*
X0006229Y0035462D01*
X0006204Y0035325D01*
X0006175Y0035187D01*
X0006142Y0035051D01*
X0006105Y0034916D01*
X0006064Y0034782D01*
X0006019Y0034649D01*
X0005971Y0034517D01*
X0005919Y0034387D01*
X0005864Y0034258D01*
X0005805Y0034131D01*
X0005742Y0034005D01*
X0005676Y0033881D01*
X0005607Y0033760D01*
X0005534Y0033640D01*
X0005457Y0033522D01*
X0005378Y0033407D01*
X0005295Y0033293D01*
X0005209Y0033183D01*
X0005120Y0033074D01*
X0005028Y0032968D01*
X0004933Y0032865D01*
X0004836Y0032764D01*
X0004735Y0032667D01*
X0004632Y0032572D01*
X0004526Y0032480D01*
X0004417Y0032391D01*
X0004307Y0032305D01*
X0004193Y0032222D01*
X0004078Y0032143D01*
X0003960Y0032066D01*
X0003840Y0031993D01*
X0003719Y0031924D01*
X0003595Y0031858D01*
X0003469Y0031795D01*
X0003342Y0031736D01*
X0003213Y0031681D01*
X0003083Y0031629D01*
X0002951Y0031581D01*
X0002818Y0031536D01*
X0002684Y0031495D01*
X0002549Y0031458D01*
X0002413Y0031425D01*
X0002275Y0031396D01*
X0002138Y0031371D01*
X0001999Y0031349D01*
X0001860Y0031331D01*
X0001720Y0031318D01*
X0001580Y0031308D01*
X0001440Y0031302D01*
X0001300Y0031300D01*
X0006300Y0036300D02*
X0006298Y0036440D01*
X0006292Y0036580D01*
X0006282Y0036720D01*
X0006269Y0036860D01*
X0006251Y0036999D01*
X0006229Y0037138D01*
X0006204Y0037275D01*
X0006175Y0037413D01*
X0006142Y0037549D01*
X0006105Y0037684D01*
X0006064Y0037818D01*
X0006019Y0037951D01*
X0005971Y0038083D01*
X0005919Y0038213D01*
X0005864Y0038342D01*
X0005805Y0038469D01*
X0005742Y0038595D01*
X0005676Y0038719D01*
X0005607Y0038840D01*
X0005534Y0038960D01*
X0005457Y0039078D01*
X0005378Y0039193D01*
X0005295Y0039307D01*
X0005209Y0039417D01*
X0005120Y0039526D01*
X0005028Y0039632D01*
X0004933Y0039735D01*
X0004836Y0039836D01*
X0004735Y0039933D01*
X0004632Y0040028D01*
X0004526Y0040120D01*
X0004417Y0040209D01*
X0004307Y0040295D01*
X0004193Y0040378D01*
X0004078Y0040457D01*
X0003960Y0040534D01*
X0003840Y0040607D01*
X0003719Y0040676D01*
X0003595Y0040742D01*
X0003469Y0040805D01*
X0003342Y0040864D01*
X0003213Y0040919D01*
X0003083Y0040971D01*
X0002951Y0041019D01*
X0002818Y0041064D01*
X0002684Y0041105D01*
X0002549Y0041142D01*
X0002413Y0041175D01*
X0002275Y0041204D01*
X0002138Y0041229D01*
X0001999Y0041251D01*
X0001860Y0041269D01*
X0001720Y0041282D01*
X0001580Y0041292D01*
X0001440Y0041298D01*
X0001300Y0041300D01*
M02*
