G75*
%MOIN*%
%OFA0B0*%
%FSLAX25Y25*%
%IPPOS*%
%LPD*%
%AMOC8*
5,1,8,0,0,1.08239X$1,22.5*
%
%ADD10C,0.06000*%
%ADD11R,0.05906X0.05906*%
%ADD12C,0.05906*%
%ADD13C,0.00600*%
%ADD14C,0.02200*%
D10*
X0188300Y0021300D02*
X0194300Y0021300D01*
X0194300Y0031300D02*
X0188300Y0031300D01*
X0188300Y0041300D02*
X0194300Y0041300D01*
X0194300Y0051300D02*
X0188300Y0051300D01*
D11*
X0006300Y0006300D03*
D12*
X0016300Y0006300D03*
X0026300Y0006300D03*
X0036300Y0006300D03*
X0046300Y0006300D03*
X0056300Y0006300D03*
X0066300Y0006300D03*
X0076300Y0006300D03*
X0086300Y0006300D03*
X0096300Y0006300D03*
X0106300Y0006300D03*
X0116300Y0006300D03*
X0126300Y0006300D03*
X0136300Y0006300D03*
X0146300Y0006300D03*
X0156300Y0006300D03*
X0166300Y0006300D03*
X0176300Y0006300D03*
X0186300Y0006300D03*
X0196300Y0006300D03*
X0196300Y0066300D03*
X0186300Y0066300D03*
X0176300Y0066300D03*
X0166300Y0066300D03*
X0156300Y0066300D03*
X0146300Y0066300D03*
X0136300Y0066300D03*
X0126300Y0066300D03*
X0116300Y0066300D03*
X0106300Y0066300D03*
X0096300Y0066300D03*
X0086300Y0066300D03*
X0076300Y0066300D03*
X0066300Y0066300D03*
X0056300Y0066300D03*
X0046300Y0066300D03*
X0036300Y0066300D03*
X0026300Y0066300D03*
X0016300Y0066300D03*
X0006300Y0066300D03*
D13*
X0010153Y0009626D02*
X0010153Y0003100D01*
X0014051Y0003100D01*
X0013034Y0004118D01*
X0012447Y0005534D01*
X0012447Y0007066D01*
X0013034Y0008482D01*
X0010153Y0008482D01*
X0010153Y0007884D02*
X0012786Y0007884D01*
X0013034Y0008482D02*
X0014118Y0009566D01*
X0015534Y0010153D01*
X0017066Y0010153D01*
X0018482Y0009566D01*
X0019566Y0008482D01*
X0023034Y0008482D01*
X0022447Y0007066D01*
X0022447Y0005534D01*
X0023034Y0004118D01*
X0024051Y0003100D01*
X0018549Y0003100D01*
X0019566Y0004118D01*
X0020153Y0005534D01*
X0020153Y0007066D01*
X0019566Y0008482D01*
X0019814Y0007884D02*
X0022786Y0007884D01*
X0023034Y0008482D02*
X0024118Y0009566D01*
X0025534Y0010153D01*
X0027066Y0010153D01*
X0028482Y0009566D01*
X0029566Y0008482D01*
X0033034Y0008482D01*
X0032447Y0007066D01*
X0032447Y0005534D01*
X0033034Y0004118D01*
X0034051Y0003100D01*
X0028549Y0003100D01*
X0029566Y0004118D01*
X0030153Y0005534D01*
X0030153Y0007066D01*
X0029566Y0008482D01*
X0029814Y0007884D02*
X0032786Y0007884D01*
X0033034Y0008482D02*
X0034118Y0009566D01*
X0035534Y0010153D01*
X0037066Y0010153D01*
X0038482Y0009566D01*
X0039566Y0008482D01*
X0043034Y0008482D01*
X0042447Y0007066D01*
X0042447Y0005534D01*
X0043034Y0004118D01*
X0044051Y0003100D01*
X0038549Y0003100D01*
X0039566Y0004118D01*
X0040153Y0005534D01*
X0040153Y0007066D01*
X0039566Y0008482D01*
X0039814Y0007884D02*
X0042786Y0007884D01*
X0043034Y0008482D02*
X0044118Y0009566D01*
X0045534Y0010153D01*
X0047066Y0010153D01*
X0048482Y0009566D01*
X0049566Y0008482D01*
X0053034Y0008482D01*
X0052447Y0007066D01*
X0052447Y0005534D01*
X0053034Y0004118D01*
X0054051Y0003100D01*
X0048549Y0003100D01*
X0049566Y0004118D01*
X0050153Y0005534D01*
X0050153Y0007066D01*
X0049566Y0008482D01*
X0049814Y0007884D02*
X0052786Y0007884D01*
X0053034Y0008482D02*
X0054118Y0009566D01*
X0055534Y0010153D01*
X0057066Y0010153D01*
X0058482Y0009566D01*
X0059566Y0008482D01*
X0062639Y0008482D01*
X0062663Y0008529D02*
X0062359Y0007932D01*
X0062152Y0007296D01*
X0062047Y0006635D01*
X0062047Y0006600D01*
X0066000Y0006600D01*
X0066000Y0010553D01*
X0065965Y0010553D01*
X0065304Y0010448D01*
X0064667Y0010241D01*
X0064071Y0009937D01*
X0063530Y0009544D01*
X0063056Y0009070D01*
X0062663Y0008529D01*
X0063066Y0009081D02*
X0058968Y0009081D01*
X0059566Y0008482D02*
X0060153Y0007066D01*
X0060153Y0005534D01*
X0059566Y0004118D01*
X0058549Y0003100D01*
X0063486Y0003100D01*
X0063056Y0003530D01*
X0062663Y0004071D01*
X0062359Y0004667D01*
X0062152Y0005304D01*
X0062047Y0005965D01*
X0062047Y0006000D01*
X0066000Y0006000D01*
X0066000Y0006600D01*
X0066600Y0006600D01*
X0070553Y0006600D01*
X0070553Y0006635D01*
X0070448Y0007296D01*
X0070241Y0007932D01*
X0069937Y0008529D01*
X0069544Y0009070D01*
X0069070Y0009544D01*
X0068529Y0009937D01*
X0067932Y0010241D01*
X0067296Y0010448D01*
X0066635Y0010553D01*
X0066600Y0010553D01*
X0066600Y0006600D01*
X0066600Y0006000D01*
X0070553Y0006000D01*
X0070553Y0005965D01*
X0070448Y0005304D01*
X0070241Y0004667D01*
X0069937Y0004071D01*
X0069544Y0003530D01*
X0069114Y0003100D01*
X0074051Y0003100D01*
X0073034Y0004118D01*
X0072447Y0005534D01*
X0072447Y0007066D01*
X0073034Y0008482D01*
X0069961Y0008482D01*
X0070257Y0007884D02*
X0072786Y0007884D01*
X0073034Y0008482D02*
X0074118Y0009566D01*
X0075534Y0010153D01*
X0077066Y0010153D01*
X0078482Y0009566D01*
X0079566Y0008482D01*
X0083034Y0008482D01*
X0082447Y0007066D01*
X0082447Y0005534D01*
X0083034Y0004118D01*
X0084051Y0003100D01*
X0078549Y0003100D01*
X0079566Y0004118D01*
X0080153Y0005534D01*
X0080153Y0007066D01*
X0079566Y0008482D01*
X0079814Y0007884D02*
X0082786Y0007884D01*
X0083034Y0008482D02*
X0084118Y0009566D01*
X0085534Y0010153D01*
X0087066Y0010153D01*
X0088482Y0009566D01*
X0089566Y0008482D01*
X0093034Y0008482D01*
X0092447Y0007066D01*
X0092447Y0005534D01*
X0093034Y0004118D01*
X0094051Y0003100D01*
X0088549Y0003100D01*
X0089566Y0004118D01*
X0090153Y0005534D01*
X0090153Y0007066D01*
X0089566Y0008482D01*
X0089814Y0007884D02*
X0092786Y0007884D01*
X0093034Y0008482D02*
X0094118Y0009566D01*
X0095534Y0010153D01*
X0097066Y0010153D01*
X0098482Y0009566D01*
X0099566Y0008482D01*
X0103034Y0008482D01*
X0102447Y0007066D01*
X0102447Y0005534D01*
X0103034Y0004118D01*
X0104051Y0003100D01*
X0098549Y0003100D01*
X0099566Y0004118D01*
X0100153Y0005534D01*
X0100153Y0007066D01*
X0099566Y0008482D01*
X0099814Y0007884D02*
X0102786Y0007884D01*
X0103034Y0008482D02*
X0104118Y0009566D01*
X0105534Y0010153D01*
X0107066Y0010153D01*
X0108482Y0009566D01*
X0109566Y0008482D01*
X0113034Y0008482D01*
X0112447Y0007066D01*
X0112447Y0005534D01*
X0113034Y0004118D01*
X0114051Y0003100D01*
X0108549Y0003100D01*
X0109566Y0004118D01*
X0110153Y0005534D01*
X0110153Y0007066D01*
X0109566Y0008482D01*
X0109814Y0007884D02*
X0112786Y0007884D01*
X0113034Y0008482D02*
X0114118Y0009566D01*
X0115534Y0010153D01*
X0117066Y0010153D01*
X0118482Y0009566D01*
X0119566Y0008482D01*
X0123034Y0008482D01*
X0122447Y0007066D01*
X0122447Y0005534D01*
X0123034Y0004118D01*
X0124051Y0003100D01*
X0118549Y0003100D01*
X0119566Y0004118D01*
X0120153Y0005534D01*
X0120153Y0007066D01*
X0119566Y0008482D01*
X0119814Y0007884D02*
X0122786Y0007884D01*
X0123034Y0008482D02*
X0124118Y0009566D01*
X0125534Y0010153D01*
X0127066Y0010153D01*
X0128482Y0009566D01*
X0129566Y0008482D01*
X0133034Y0008482D01*
X0132447Y0007066D01*
X0132447Y0005534D01*
X0133034Y0004118D01*
X0134051Y0003100D01*
X0128549Y0003100D01*
X0129566Y0004118D01*
X0130153Y0005534D01*
X0130153Y0007066D01*
X0129566Y0008482D01*
X0129814Y0007884D02*
X0132786Y0007884D01*
X0133034Y0008482D02*
X0134118Y0009566D01*
X0135534Y0010153D01*
X0137066Y0010153D01*
X0138482Y0009566D01*
X0139566Y0008482D01*
X0143034Y0008482D01*
X0142447Y0007066D01*
X0142447Y0005534D01*
X0143034Y0004118D01*
X0144051Y0003100D01*
X0138549Y0003100D01*
X0139566Y0004118D01*
X0140153Y0005534D01*
X0140153Y0007066D01*
X0139566Y0008482D01*
X0139814Y0007884D02*
X0142786Y0007884D01*
X0143034Y0008482D02*
X0144118Y0009566D01*
X0145534Y0010153D01*
X0147066Y0010153D01*
X0148482Y0009566D01*
X0149566Y0008482D01*
X0153034Y0008482D01*
X0152447Y0007066D01*
X0152447Y0005534D01*
X0153034Y0004118D01*
X0154051Y0003100D01*
X0148549Y0003100D01*
X0149566Y0004118D01*
X0150153Y0005534D01*
X0150153Y0007066D01*
X0149566Y0008482D01*
X0149814Y0007884D02*
X0152786Y0007884D01*
X0153034Y0008482D02*
X0154118Y0009566D01*
X0155534Y0010153D01*
X0157066Y0010153D01*
X0158482Y0009566D01*
X0159566Y0008482D01*
X0163034Y0008482D01*
X0162447Y0007066D01*
X0162447Y0005534D01*
X0163034Y0004118D01*
X0164051Y0003100D01*
X0158549Y0003100D01*
X0159566Y0004118D01*
X0160153Y0005534D01*
X0160153Y0007066D01*
X0159566Y0008482D01*
X0159814Y0007884D02*
X0162786Y0007884D01*
X0163034Y0008482D02*
X0164118Y0009566D01*
X0165534Y0010153D01*
X0167066Y0010153D01*
X0168482Y0009566D01*
X0169566Y0008482D01*
X0173034Y0008482D01*
X0172447Y0007066D01*
X0172447Y0005534D01*
X0173034Y0004118D01*
X0174051Y0003100D01*
X0168549Y0003100D01*
X0169566Y0004118D01*
X0170153Y0005534D01*
X0170153Y0007066D01*
X0169566Y0008482D01*
X0169814Y0007884D02*
X0172786Y0007884D01*
X0173034Y0008482D02*
X0174118Y0009566D01*
X0175534Y0010153D01*
X0177066Y0010153D01*
X0178482Y0009566D01*
X0179566Y0008482D01*
X0183034Y0008482D01*
X0182447Y0007066D01*
X0182447Y0005534D01*
X0183034Y0004118D01*
X0184051Y0003100D01*
X0178549Y0003100D01*
X0179566Y0004118D01*
X0180153Y0005534D01*
X0180153Y0007066D01*
X0179566Y0008482D01*
X0179814Y0007884D02*
X0182786Y0007884D01*
X0183034Y0008482D02*
X0184118Y0009566D01*
X0185534Y0010153D01*
X0187066Y0010153D01*
X0188482Y0009566D01*
X0189566Y0008482D01*
X0193034Y0008482D01*
X0192447Y0007066D01*
X0192447Y0005534D01*
X0193034Y0004118D01*
X0194051Y0003100D01*
X0188549Y0003100D01*
X0189566Y0004118D01*
X0190153Y0005534D01*
X0190153Y0007066D01*
X0189566Y0008482D01*
X0189814Y0007884D02*
X0192786Y0007884D01*
X0193034Y0008482D02*
X0194118Y0009566D01*
X0195534Y0010153D01*
X0197066Y0010153D01*
X0198482Y0009566D01*
X0199500Y0008549D01*
X0199500Y0064051D01*
X0198482Y0063034D01*
X0197066Y0062447D01*
X0195534Y0062447D01*
X0194118Y0063034D01*
X0193034Y0064118D01*
X0192447Y0065534D01*
X0192447Y0067066D01*
X0193034Y0068482D01*
X0194051Y0069500D01*
X0188549Y0069500D01*
X0189566Y0068482D01*
X0190153Y0067066D01*
X0190153Y0065534D01*
X0189566Y0064118D01*
X0188482Y0063034D01*
X0187066Y0062447D01*
X0185534Y0062447D01*
X0184118Y0063034D01*
X0183034Y0064118D01*
X0182447Y0065534D01*
X0182447Y0067066D01*
X0183034Y0068482D01*
X0184051Y0069500D01*
X0178549Y0069500D01*
X0179566Y0068482D01*
X0180153Y0067066D01*
X0180153Y0065534D01*
X0179566Y0064118D01*
X0178482Y0063034D01*
X0177066Y0062447D01*
X0175534Y0062447D01*
X0174118Y0063034D01*
X0173034Y0064118D01*
X0172447Y0065534D01*
X0172447Y0067066D01*
X0173034Y0068482D01*
X0174051Y0069500D01*
X0168549Y0069500D01*
X0169566Y0068482D01*
X0170153Y0067066D01*
X0170153Y0065534D01*
X0169566Y0064118D01*
X0168482Y0063034D01*
X0167066Y0062447D01*
X0165534Y0062447D01*
X0164118Y0063034D01*
X0163034Y0064118D01*
X0162447Y0065534D01*
X0162447Y0067066D01*
X0163034Y0068482D01*
X0164051Y0069500D01*
X0158549Y0069500D01*
X0159566Y0068482D01*
X0160153Y0067066D01*
X0160153Y0065534D01*
X0159566Y0064118D01*
X0158482Y0063034D01*
X0157066Y0062447D01*
X0155534Y0062447D01*
X0154118Y0063034D01*
X0153034Y0064118D01*
X0152447Y0065534D01*
X0152447Y0067066D01*
X0153034Y0068482D01*
X0154051Y0069500D01*
X0148549Y0069500D01*
X0149566Y0068482D01*
X0150153Y0067066D01*
X0150153Y0065534D01*
X0149566Y0064118D01*
X0148482Y0063034D01*
X0147066Y0062447D01*
X0145534Y0062447D01*
X0144118Y0063034D01*
X0143034Y0064118D01*
X0142447Y0065534D01*
X0142447Y0067066D01*
X0143034Y0068482D01*
X0144051Y0069500D01*
X0138549Y0069500D01*
X0139566Y0068482D01*
X0140153Y0067066D01*
X0140153Y0065534D01*
X0139566Y0064118D01*
X0138482Y0063034D01*
X0137066Y0062447D01*
X0135534Y0062447D01*
X0134118Y0063034D01*
X0133034Y0064118D01*
X0132447Y0065534D01*
X0132447Y0067066D01*
X0133034Y0068482D01*
X0134051Y0069500D01*
X0128549Y0069500D01*
X0129566Y0068482D01*
X0130153Y0067066D01*
X0130153Y0065534D01*
X0129566Y0064118D01*
X0128482Y0063034D01*
X0127066Y0062447D01*
X0125534Y0062447D01*
X0124118Y0063034D01*
X0123034Y0064118D01*
X0122447Y0065534D01*
X0122447Y0067066D01*
X0123034Y0068482D01*
X0124051Y0069500D01*
X0118549Y0069500D01*
X0119566Y0068482D01*
X0120153Y0067066D01*
X0120153Y0065534D01*
X0119566Y0064118D01*
X0118482Y0063034D01*
X0117066Y0062447D01*
X0115534Y0062447D01*
X0114118Y0063034D01*
X0113034Y0064118D01*
X0112447Y0065534D01*
X0112447Y0067066D01*
X0113034Y0068482D01*
X0114051Y0069500D01*
X0108549Y0069500D01*
X0109566Y0068482D01*
X0110153Y0067066D01*
X0110153Y0065534D01*
X0109566Y0064118D01*
X0108482Y0063034D01*
X0107066Y0062447D01*
X0105534Y0062447D01*
X0104118Y0063034D01*
X0103034Y0064118D01*
X0102447Y0065534D01*
X0102447Y0067066D01*
X0103034Y0068482D01*
X0104051Y0069500D01*
X0098549Y0069500D01*
X0099566Y0068482D01*
X0100153Y0067066D01*
X0100153Y0065534D01*
X0099566Y0064118D01*
X0098482Y0063034D01*
X0097066Y0062447D01*
X0095534Y0062447D01*
X0094118Y0063034D01*
X0093034Y0064118D01*
X0092447Y0065534D01*
X0092447Y0067066D01*
X0093034Y0068482D01*
X0094051Y0069500D01*
X0088549Y0069500D01*
X0089566Y0068482D01*
X0090153Y0067066D01*
X0090153Y0065534D01*
X0089566Y0064118D01*
X0088482Y0063034D01*
X0087066Y0062447D01*
X0085534Y0062447D01*
X0084118Y0063034D01*
X0083034Y0064118D01*
X0082447Y0065534D01*
X0082447Y0067066D01*
X0083034Y0068482D01*
X0084051Y0069500D01*
X0078549Y0069500D01*
X0079566Y0068482D01*
X0080153Y0067066D01*
X0080153Y0065534D01*
X0079566Y0064118D01*
X0078482Y0063034D01*
X0077066Y0062447D01*
X0075534Y0062447D01*
X0074118Y0063034D01*
X0073034Y0064118D01*
X0072447Y0065534D01*
X0072447Y0067066D01*
X0073034Y0068482D01*
X0074051Y0069500D01*
X0068549Y0069500D01*
X0069566Y0068482D01*
X0070153Y0067066D01*
X0070153Y0065534D01*
X0069566Y0064118D01*
X0068482Y0063034D01*
X0067066Y0062447D01*
X0065534Y0062447D01*
X0064118Y0063034D01*
X0063034Y0064118D01*
X0062447Y0065534D01*
X0062447Y0067066D01*
X0063034Y0068482D01*
X0064051Y0069500D01*
X0058549Y0069500D01*
X0059566Y0068482D01*
X0060153Y0067066D01*
X0060153Y0065534D01*
X0059566Y0064118D01*
X0058482Y0063034D01*
X0057066Y0062447D01*
X0055534Y0062447D01*
X0054118Y0063034D01*
X0053034Y0064118D01*
X0052447Y0065534D01*
X0052447Y0067066D01*
X0053034Y0068482D01*
X0054051Y0069500D01*
X0048549Y0069500D01*
X0049566Y0068482D01*
X0050153Y0067066D01*
X0050153Y0065534D01*
X0049566Y0064118D01*
X0048482Y0063034D01*
X0047066Y0062447D01*
X0045534Y0062447D01*
X0044118Y0063034D01*
X0043034Y0064118D01*
X0042447Y0065534D01*
X0042447Y0067066D01*
X0043034Y0068482D01*
X0044051Y0069500D01*
X0038549Y0069500D01*
X0039566Y0068482D01*
X0040153Y0067066D01*
X0040153Y0065534D01*
X0039566Y0064118D01*
X0038482Y0063034D01*
X0037066Y0062447D01*
X0035534Y0062447D01*
X0034118Y0063034D01*
X0033034Y0064118D01*
X0032447Y0065534D01*
X0032447Y0067066D01*
X0033034Y0068482D01*
X0034051Y0069500D01*
X0028549Y0069500D01*
X0029566Y0068482D01*
X0030153Y0067066D01*
X0030153Y0065534D01*
X0029566Y0064118D01*
X0028482Y0063034D01*
X0027066Y0062447D01*
X0025534Y0062447D01*
X0024118Y0063034D01*
X0023034Y0064118D01*
X0022447Y0065534D01*
X0022447Y0067066D01*
X0023034Y0068482D01*
X0024051Y0069500D01*
X0018549Y0069500D01*
X0019566Y0068482D01*
X0020153Y0067066D01*
X0020153Y0065534D01*
X0019566Y0064118D01*
X0018482Y0063034D01*
X0017066Y0062447D01*
X0015534Y0062447D01*
X0014118Y0063034D01*
X0013034Y0064118D01*
X0012447Y0065534D01*
X0012447Y0067066D01*
X0013034Y0068482D01*
X0014051Y0069500D01*
X0008549Y0069500D01*
X0009566Y0068482D01*
X0010153Y0067066D01*
X0010153Y0065534D01*
X0009566Y0064118D01*
X0008482Y0063034D01*
X0007066Y0062447D01*
X0005534Y0062447D01*
X0004118Y0063034D01*
X0003100Y0064051D01*
X0003100Y0010153D01*
X0009626Y0010153D01*
X0010153Y0009626D01*
X0010099Y0009679D02*
X0014390Y0009679D01*
X0013632Y0009081D02*
X0010153Y0009081D01*
X0010153Y0007285D02*
X0012538Y0007285D01*
X0012447Y0006687D02*
X0010153Y0006687D01*
X0010153Y0006088D02*
X0012447Y0006088D01*
X0012465Y0005490D02*
X0010153Y0005490D01*
X0010153Y0004891D02*
X0012713Y0004891D01*
X0012961Y0004293D02*
X0010153Y0004293D01*
X0010153Y0003694D02*
X0013457Y0003694D01*
X0019143Y0003694D02*
X0023457Y0003694D01*
X0022961Y0004293D02*
X0019639Y0004293D01*
X0019887Y0004891D02*
X0022713Y0004891D01*
X0022465Y0005490D02*
X0020134Y0005490D01*
X0020153Y0006088D02*
X0022447Y0006088D01*
X0022447Y0006687D02*
X0020153Y0006687D01*
X0020062Y0007285D02*
X0022538Y0007285D01*
X0023632Y0009081D02*
X0018968Y0009081D01*
X0018210Y0009679D02*
X0024390Y0009679D01*
X0028210Y0009679D02*
X0034390Y0009679D01*
X0033632Y0009081D02*
X0028968Y0009081D01*
X0030062Y0007285D02*
X0032538Y0007285D01*
X0032447Y0006687D02*
X0030153Y0006687D01*
X0030153Y0006088D02*
X0032447Y0006088D01*
X0032465Y0005490D02*
X0030134Y0005490D01*
X0029887Y0004891D02*
X0032713Y0004891D01*
X0032961Y0004293D02*
X0029639Y0004293D01*
X0029143Y0003694D02*
X0033457Y0003694D01*
X0039143Y0003694D02*
X0043457Y0003694D01*
X0042961Y0004293D02*
X0039639Y0004293D01*
X0039887Y0004891D02*
X0042713Y0004891D01*
X0042465Y0005490D02*
X0040134Y0005490D01*
X0040153Y0006088D02*
X0042447Y0006088D01*
X0042447Y0006687D02*
X0040153Y0006687D01*
X0040062Y0007285D02*
X0042538Y0007285D01*
X0043632Y0009081D02*
X0038968Y0009081D01*
X0038210Y0009679D02*
X0044390Y0009679D01*
X0048210Y0009679D02*
X0054390Y0009679D01*
X0053632Y0009081D02*
X0048968Y0009081D01*
X0050062Y0007285D02*
X0052538Y0007285D01*
X0052447Y0006687D02*
X0050153Y0006687D01*
X0050153Y0006088D02*
X0052447Y0006088D01*
X0052465Y0005490D02*
X0050134Y0005490D01*
X0049887Y0004891D02*
X0052713Y0004891D01*
X0052961Y0004293D02*
X0049639Y0004293D01*
X0049143Y0003694D02*
X0053457Y0003694D01*
X0059143Y0003694D02*
X0062937Y0003694D01*
X0062550Y0004293D02*
X0059639Y0004293D01*
X0059887Y0004891D02*
X0062286Y0004891D01*
X0062123Y0005490D02*
X0060134Y0005490D01*
X0060153Y0006088D02*
X0066000Y0006088D01*
X0066000Y0006687D02*
X0066600Y0006687D01*
X0066600Y0007285D02*
X0066000Y0007285D01*
X0066000Y0007884D02*
X0066600Y0007884D01*
X0066600Y0008482D02*
X0066000Y0008482D01*
X0066000Y0009081D02*
X0066600Y0009081D01*
X0066600Y0009679D02*
X0066000Y0009679D01*
X0066000Y0010278D02*
X0066600Y0010278D01*
X0067820Y0010278D02*
X0199500Y0010278D01*
X0199500Y0010876D02*
X0003100Y0010876D01*
X0003100Y0010278D02*
X0064780Y0010278D01*
X0063716Y0009679D02*
X0058210Y0009679D01*
X0059814Y0007884D02*
X0062343Y0007884D01*
X0062150Y0007285D02*
X0060062Y0007285D01*
X0060153Y0006687D02*
X0062055Y0006687D01*
X0066600Y0006088D02*
X0072447Y0006088D01*
X0072447Y0006687D02*
X0070545Y0006687D01*
X0070450Y0007285D02*
X0072538Y0007285D01*
X0073632Y0009081D02*
X0069534Y0009081D01*
X0068884Y0009679D02*
X0074390Y0009679D01*
X0078210Y0009679D02*
X0084390Y0009679D01*
X0083632Y0009081D02*
X0078968Y0009081D01*
X0080062Y0007285D02*
X0082538Y0007285D01*
X0082447Y0006687D02*
X0080153Y0006687D01*
X0080153Y0006088D02*
X0082447Y0006088D01*
X0082465Y0005490D02*
X0080134Y0005490D01*
X0079887Y0004891D02*
X0082713Y0004891D01*
X0082961Y0004293D02*
X0079639Y0004293D01*
X0079143Y0003694D02*
X0083457Y0003694D01*
X0089143Y0003694D02*
X0093457Y0003694D01*
X0092961Y0004293D02*
X0089639Y0004293D01*
X0089887Y0004891D02*
X0092713Y0004891D01*
X0092465Y0005490D02*
X0090134Y0005490D01*
X0090153Y0006088D02*
X0092447Y0006088D01*
X0092447Y0006687D02*
X0090153Y0006687D01*
X0090062Y0007285D02*
X0092538Y0007285D01*
X0093632Y0009081D02*
X0088968Y0009081D01*
X0088210Y0009679D02*
X0094390Y0009679D01*
X0098210Y0009679D02*
X0104390Y0009679D01*
X0103632Y0009081D02*
X0098968Y0009081D01*
X0100062Y0007285D02*
X0102538Y0007285D01*
X0102447Y0006687D02*
X0100153Y0006687D01*
X0100153Y0006088D02*
X0102447Y0006088D01*
X0102465Y0005490D02*
X0100134Y0005490D01*
X0099887Y0004891D02*
X0102713Y0004891D01*
X0102961Y0004293D02*
X0099639Y0004293D01*
X0099143Y0003694D02*
X0103457Y0003694D01*
X0109143Y0003694D02*
X0113457Y0003694D01*
X0112961Y0004293D02*
X0109639Y0004293D01*
X0109887Y0004891D02*
X0112713Y0004891D01*
X0112465Y0005490D02*
X0110134Y0005490D01*
X0110153Y0006088D02*
X0112447Y0006088D01*
X0112447Y0006687D02*
X0110153Y0006687D01*
X0110062Y0007285D02*
X0112538Y0007285D01*
X0113632Y0009081D02*
X0108968Y0009081D01*
X0108210Y0009679D02*
X0114390Y0009679D01*
X0118210Y0009679D02*
X0124390Y0009679D01*
X0123632Y0009081D02*
X0118968Y0009081D01*
X0120062Y0007285D02*
X0122538Y0007285D01*
X0122447Y0006687D02*
X0120153Y0006687D01*
X0120153Y0006088D02*
X0122447Y0006088D01*
X0122465Y0005490D02*
X0120134Y0005490D01*
X0119887Y0004891D02*
X0122713Y0004891D01*
X0122961Y0004293D02*
X0119639Y0004293D01*
X0119143Y0003694D02*
X0123457Y0003694D01*
X0129143Y0003694D02*
X0133457Y0003694D01*
X0132961Y0004293D02*
X0129639Y0004293D01*
X0129887Y0004891D02*
X0132713Y0004891D01*
X0132465Y0005490D02*
X0130134Y0005490D01*
X0130153Y0006088D02*
X0132447Y0006088D01*
X0132447Y0006687D02*
X0130153Y0006687D01*
X0130062Y0007285D02*
X0132538Y0007285D01*
X0133632Y0009081D02*
X0128968Y0009081D01*
X0128210Y0009679D02*
X0134390Y0009679D01*
X0138210Y0009679D02*
X0144390Y0009679D01*
X0143632Y0009081D02*
X0138968Y0009081D01*
X0140062Y0007285D02*
X0142538Y0007285D01*
X0142447Y0006687D02*
X0140153Y0006687D01*
X0140153Y0006088D02*
X0142447Y0006088D01*
X0142465Y0005490D02*
X0140134Y0005490D01*
X0139887Y0004891D02*
X0142713Y0004891D01*
X0142961Y0004293D02*
X0139639Y0004293D01*
X0139143Y0003694D02*
X0143457Y0003694D01*
X0149143Y0003694D02*
X0153457Y0003694D01*
X0152961Y0004293D02*
X0149639Y0004293D01*
X0149887Y0004891D02*
X0152713Y0004891D01*
X0152465Y0005490D02*
X0150134Y0005490D01*
X0150153Y0006088D02*
X0152447Y0006088D01*
X0152447Y0006687D02*
X0150153Y0006687D01*
X0150062Y0007285D02*
X0152538Y0007285D01*
X0153632Y0009081D02*
X0148968Y0009081D01*
X0148210Y0009679D02*
X0154390Y0009679D01*
X0158210Y0009679D02*
X0164390Y0009679D01*
X0163632Y0009081D02*
X0158968Y0009081D01*
X0160062Y0007285D02*
X0162538Y0007285D01*
X0162447Y0006687D02*
X0160153Y0006687D01*
X0160153Y0006088D02*
X0162447Y0006088D01*
X0162465Y0005490D02*
X0160134Y0005490D01*
X0159887Y0004891D02*
X0162713Y0004891D01*
X0162961Y0004293D02*
X0159639Y0004293D01*
X0159143Y0003694D02*
X0163457Y0003694D01*
X0169143Y0003694D02*
X0173457Y0003694D01*
X0172961Y0004293D02*
X0169639Y0004293D01*
X0169887Y0004891D02*
X0172713Y0004891D01*
X0172465Y0005490D02*
X0170134Y0005490D01*
X0170153Y0006088D02*
X0172447Y0006088D01*
X0172447Y0006687D02*
X0170153Y0006687D01*
X0170062Y0007285D02*
X0172538Y0007285D01*
X0173632Y0009081D02*
X0168968Y0009081D01*
X0168210Y0009679D02*
X0174390Y0009679D01*
X0178210Y0009679D02*
X0184390Y0009679D01*
X0183632Y0009081D02*
X0178968Y0009081D01*
X0180062Y0007285D02*
X0182538Y0007285D01*
X0182447Y0006687D02*
X0180153Y0006687D01*
X0180153Y0006088D02*
X0182447Y0006088D01*
X0182465Y0005490D02*
X0180134Y0005490D01*
X0179887Y0004891D02*
X0182713Y0004891D01*
X0182961Y0004293D02*
X0179639Y0004293D01*
X0179143Y0003694D02*
X0183457Y0003694D01*
X0189143Y0003694D02*
X0193457Y0003694D01*
X0192961Y0004293D02*
X0189639Y0004293D01*
X0189887Y0004891D02*
X0192713Y0004891D01*
X0192465Y0005490D02*
X0190134Y0005490D01*
X0190153Y0006088D02*
X0192447Y0006088D01*
X0192447Y0006687D02*
X0190153Y0006687D01*
X0190062Y0007285D02*
X0192538Y0007285D01*
X0193632Y0009081D02*
X0188968Y0009081D01*
X0188210Y0009679D02*
X0194390Y0009679D01*
X0198210Y0009679D02*
X0199500Y0009679D01*
X0199500Y0009081D02*
X0198968Y0009081D01*
X0199500Y0011475D02*
X0003100Y0011475D01*
X0003100Y0012073D02*
X0199500Y0012073D01*
X0199500Y0012672D02*
X0003100Y0012672D01*
X0003100Y0013270D02*
X0199500Y0013270D01*
X0199500Y0013869D02*
X0003100Y0013869D01*
X0003100Y0014467D02*
X0199500Y0014467D01*
X0199500Y0015066D02*
X0003100Y0015066D01*
X0003100Y0015664D02*
X0199500Y0015664D01*
X0199500Y0016263D02*
X0003100Y0016263D01*
X0003100Y0016861D02*
X0199500Y0016861D01*
X0199500Y0017460D02*
X0196235Y0017460D01*
X0195951Y0017315D02*
X0196554Y0017622D01*
X0197101Y0018020D01*
X0197580Y0018499D01*
X0197978Y0019046D01*
X0198285Y0019649D01*
X0198494Y0020293D01*
X0198600Y0020962D01*
X0198600Y0021000D01*
X0191600Y0021000D01*
X0191600Y0021600D01*
X0191000Y0021600D01*
X0191000Y0025600D01*
X0187962Y0025600D01*
X0187293Y0025494D01*
X0186649Y0025285D01*
X0186046Y0024978D01*
X0185499Y0024580D01*
X0185020Y0024101D01*
X0184622Y0023554D01*
X0184315Y0022951D01*
X0184106Y0022307D01*
X0184000Y0021638D01*
X0184000Y0021600D01*
X0191000Y0021600D01*
X0191000Y0021000D01*
X0191600Y0021000D01*
X0191600Y0017000D01*
X0194638Y0017000D01*
X0195307Y0017106D01*
X0195951Y0017315D01*
X0197139Y0018058D02*
X0199500Y0018058D01*
X0199500Y0018657D02*
X0197695Y0018657D01*
X0198084Y0019255D02*
X0199500Y0019255D01*
X0199500Y0019854D02*
X0198351Y0019854D01*
X0198519Y0020452D02*
X0199500Y0020452D01*
X0199500Y0021051D02*
X0191600Y0021051D01*
X0191600Y0021600D02*
X0198600Y0021600D01*
X0198600Y0021638D01*
X0198494Y0022307D01*
X0198285Y0022951D01*
X0197978Y0023554D01*
X0197580Y0024101D01*
X0197101Y0024580D01*
X0196554Y0024978D01*
X0195951Y0025285D01*
X0195307Y0025494D01*
X0194638Y0025600D01*
X0191600Y0025600D01*
X0191600Y0021600D01*
X0191600Y0021649D02*
X0191000Y0021649D01*
X0191000Y0021051D02*
X0003100Y0021051D01*
X0003100Y0021649D02*
X0184002Y0021649D01*
X0184097Y0022248D02*
X0003100Y0022248D01*
X0003100Y0022846D02*
X0184281Y0022846D01*
X0184567Y0023445D02*
X0003100Y0023445D01*
X0003100Y0024043D02*
X0184978Y0024043D01*
X0185584Y0024642D02*
X0003100Y0024642D01*
X0003100Y0025240D02*
X0186562Y0025240D01*
X0191000Y0025240D02*
X0191600Y0025240D01*
X0191600Y0024642D02*
X0191000Y0024642D01*
X0191000Y0024043D02*
X0191600Y0024043D01*
X0191600Y0023445D02*
X0191000Y0023445D01*
X0191000Y0022846D02*
X0191600Y0022846D01*
X0191600Y0022248D02*
X0191000Y0022248D01*
X0191000Y0021000D02*
X0184000Y0021000D01*
X0184000Y0020962D01*
X0184106Y0020293D01*
X0184315Y0019649D01*
X0184622Y0019046D01*
X0185020Y0018499D01*
X0185499Y0018020D01*
X0186046Y0017622D01*
X0186649Y0017315D01*
X0187293Y0017106D01*
X0187962Y0017000D01*
X0191000Y0017000D01*
X0191000Y0021000D01*
X0191000Y0020452D02*
X0191600Y0020452D01*
X0191600Y0019854D02*
X0191000Y0019854D01*
X0191000Y0019255D02*
X0191600Y0019255D01*
X0191600Y0018657D02*
X0191000Y0018657D01*
X0191000Y0018058D02*
X0191600Y0018058D01*
X0191600Y0017460D02*
X0191000Y0017460D01*
X0186365Y0017460D02*
X0003100Y0017460D01*
X0003100Y0018058D02*
X0185461Y0018058D01*
X0184905Y0018657D02*
X0003100Y0018657D01*
X0003100Y0019255D02*
X0184516Y0019255D01*
X0184249Y0019854D02*
X0003100Y0019854D01*
X0003100Y0020452D02*
X0184081Y0020452D01*
X0196038Y0025240D02*
X0199500Y0025240D01*
X0199500Y0024642D02*
X0197016Y0024642D01*
X0197622Y0024043D02*
X0199500Y0024043D01*
X0199500Y0023445D02*
X0198033Y0023445D01*
X0198319Y0022846D02*
X0199500Y0022846D01*
X0199500Y0022248D02*
X0198503Y0022248D01*
X0198598Y0021649D02*
X0199500Y0021649D01*
X0199500Y0025839D02*
X0003100Y0025839D01*
X0003100Y0026437D02*
X0199500Y0026437D01*
X0199500Y0027036D02*
X0003100Y0027036D01*
X0003100Y0027634D02*
X0186958Y0027634D01*
X0187524Y0027400D02*
X0195076Y0027400D01*
X0196509Y0027994D01*
X0197606Y0029091D01*
X0198200Y0030524D01*
X0198200Y0032076D01*
X0197606Y0033509D01*
X0196509Y0034606D01*
X0195076Y0035200D01*
X0187524Y0035200D01*
X0186091Y0034606D01*
X0184994Y0033509D01*
X0184400Y0032076D01*
X0184400Y0030524D01*
X0184994Y0029091D01*
X0186091Y0027994D01*
X0187524Y0027400D01*
X0185852Y0028233D02*
X0003100Y0028233D01*
X0003100Y0028832D02*
X0185253Y0028832D01*
X0184853Y0029430D02*
X0003100Y0029430D01*
X0003100Y0030029D02*
X0184605Y0030029D01*
X0184400Y0030627D02*
X0003100Y0030627D01*
X0003100Y0031226D02*
X0071046Y0031226D01*
X0071097Y0031175D02*
X0069925Y0032347D01*
X0069925Y0034003D01*
X0071097Y0035175D01*
X0072753Y0035175D01*
X0073553Y0034375D01*
X0079047Y0034375D01*
X0079847Y0035175D01*
X0081503Y0035175D01*
X0082675Y0034003D01*
X0082675Y0032347D01*
X0081503Y0031175D01*
X0079847Y0031175D01*
X0079047Y0031975D01*
X0073553Y0031975D01*
X0072753Y0031175D01*
X0071097Y0031175D01*
X0070447Y0031824D02*
X0003100Y0031824D01*
X0003100Y0032423D02*
X0069925Y0032423D01*
X0069925Y0033021D02*
X0003100Y0033021D01*
X0003100Y0033620D02*
X0069925Y0033620D01*
X0070140Y0034218D02*
X0003100Y0034218D01*
X0003100Y0034817D02*
X0070738Y0034817D01*
X0071097Y0035550D02*
X0072753Y0035550D01*
X0073553Y0036350D01*
X0079047Y0036350D01*
X0079847Y0035550D01*
X0081503Y0035550D01*
X0082675Y0036722D01*
X0082675Y0038378D01*
X0081503Y0039550D01*
X0079847Y0039550D01*
X0079047Y0038750D01*
X0073553Y0038750D01*
X0072753Y0039550D01*
X0071097Y0039550D01*
X0069925Y0038378D01*
X0069925Y0036722D01*
X0071097Y0035550D01*
X0070633Y0036014D02*
X0003100Y0036014D01*
X0003100Y0036612D02*
X0070034Y0036612D01*
X0069925Y0037211D02*
X0003100Y0037211D01*
X0003100Y0037809D02*
X0069925Y0037809D01*
X0069954Y0038408D02*
X0003100Y0038408D01*
X0003100Y0039006D02*
X0070553Y0039006D01*
X0071097Y0039925D02*
X0072753Y0039925D01*
X0073553Y0040725D01*
X0079047Y0040725D01*
X0079847Y0039925D01*
X0081503Y0039925D01*
X0082675Y0041097D01*
X0082675Y0042753D01*
X0081503Y0043925D01*
X0079847Y0043925D01*
X0079047Y0043125D01*
X0073553Y0043125D01*
X0072753Y0043925D01*
X0071097Y0043925D01*
X0069925Y0042753D01*
X0069925Y0041097D01*
X0071097Y0039925D01*
X0070818Y0040203D02*
X0003100Y0040203D01*
X0003100Y0039605D02*
X0117667Y0039605D01*
X0117972Y0039300D02*
X0119628Y0039300D01*
X0120800Y0040472D01*
X0120800Y0042128D01*
X0120000Y0042928D01*
X0120000Y0048422D01*
X0120800Y0049222D01*
X0120800Y0050878D01*
X0119628Y0052050D01*
X0117972Y0052050D01*
X0116800Y0050878D01*
X0116800Y0049222D01*
X0117600Y0048422D01*
X0117600Y0042928D01*
X0116800Y0042128D01*
X0116800Y0040472D01*
X0117972Y0039300D01*
X0117068Y0040203D02*
X0081782Y0040203D01*
X0082380Y0040802D02*
X0116800Y0040802D01*
X0116800Y0041400D02*
X0082675Y0041400D01*
X0082675Y0041999D02*
X0116800Y0041999D01*
X0117269Y0042597D02*
X0082675Y0042597D01*
X0082233Y0043196D02*
X0117600Y0043196D01*
X0117600Y0043794D02*
X0081634Y0043794D01*
X0081503Y0044300D02*
X0079847Y0044300D01*
X0079047Y0045100D01*
X0073553Y0045100D01*
X0072753Y0044300D01*
X0071097Y0044300D01*
X0069925Y0045472D01*
X0069925Y0047128D01*
X0071097Y0048300D01*
X0072753Y0048300D01*
X0073553Y0047500D01*
X0079047Y0047500D01*
X0079847Y0048300D01*
X0081503Y0048300D01*
X0082675Y0047128D01*
X0082675Y0045472D01*
X0081503Y0044300D01*
X0081596Y0044393D02*
X0117600Y0044393D01*
X0117600Y0044991D02*
X0082195Y0044991D01*
X0082675Y0045590D02*
X0117600Y0045590D01*
X0117600Y0046188D02*
X0082675Y0046188D01*
X0082675Y0046787D02*
X0117600Y0046787D01*
X0117600Y0047385D02*
X0082418Y0047385D01*
X0081820Y0047984D02*
X0117600Y0047984D01*
X0117439Y0048582D02*
X0003100Y0048582D01*
X0003100Y0047984D02*
X0070780Y0047984D01*
X0070182Y0047385D02*
X0003100Y0047385D01*
X0003100Y0046787D02*
X0069925Y0046787D01*
X0069925Y0046188D02*
X0003100Y0046188D01*
X0003100Y0045590D02*
X0069925Y0045590D01*
X0070405Y0044991D02*
X0003100Y0044991D01*
X0003100Y0044393D02*
X0071004Y0044393D01*
X0070966Y0043794D02*
X0003100Y0043794D01*
X0003100Y0043196D02*
X0070367Y0043196D01*
X0069925Y0042597D02*
X0003100Y0042597D01*
X0003100Y0041999D02*
X0069925Y0041999D01*
X0069925Y0041400D02*
X0003100Y0041400D01*
X0003100Y0040802D02*
X0070220Y0040802D01*
X0071925Y0041925D02*
X0080675Y0041925D01*
X0079117Y0043196D02*
X0073483Y0043196D01*
X0072884Y0043794D02*
X0079716Y0043794D01*
X0079754Y0044393D02*
X0072846Y0044393D01*
X0073445Y0044991D02*
X0079155Y0044991D01*
X0080675Y0046300D02*
X0071925Y0046300D01*
X0073070Y0047984D02*
X0079530Y0047984D01*
X0079847Y0049300D02*
X0081503Y0049300D01*
X0082675Y0050472D01*
X0082675Y0052128D01*
X0081503Y0053300D01*
X0079847Y0053300D01*
X0079047Y0052500D01*
X0073553Y0052500D01*
X0072753Y0053300D01*
X0071097Y0053300D01*
X0069925Y0052128D01*
X0069925Y0050472D01*
X0071097Y0049300D01*
X0072753Y0049300D01*
X0073553Y0050100D01*
X0079047Y0050100D01*
X0079847Y0049300D01*
X0079367Y0049779D02*
X0073233Y0049779D01*
X0071925Y0051300D02*
X0080675Y0051300D01*
X0082675Y0051575D02*
X0117497Y0051575D01*
X0116898Y0050976D02*
X0082675Y0050976D01*
X0082581Y0050378D02*
X0116800Y0050378D01*
X0116800Y0049779D02*
X0081983Y0049779D01*
X0082630Y0052173D02*
X0184440Y0052173D01*
X0184400Y0052076D02*
X0184400Y0050524D01*
X0184994Y0049091D01*
X0186091Y0047994D01*
X0187524Y0047400D01*
X0195076Y0047400D01*
X0196509Y0047994D01*
X0197606Y0049091D01*
X0198200Y0050524D01*
X0198200Y0052076D01*
X0197606Y0053509D01*
X0196509Y0054606D01*
X0195076Y0055200D01*
X0187524Y0055200D01*
X0186091Y0054606D01*
X0184994Y0053509D01*
X0184400Y0052076D01*
X0184400Y0051575D02*
X0125103Y0051575D01*
X0124628Y0052050D02*
X0122972Y0052050D01*
X0121800Y0050878D01*
X0121800Y0049222D01*
X0122600Y0048422D01*
X0122600Y0042928D01*
X0121800Y0042128D01*
X0121800Y0040472D01*
X0122972Y0039300D01*
X0124628Y0039300D01*
X0125800Y0040472D01*
X0125800Y0042128D01*
X0125000Y0042928D01*
X0125000Y0048422D01*
X0125800Y0049222D01*
X0125800Y0050878D01*
X0124628Y0052050D01*
X0125702Y0050976D02*
X0184400Y0050976D01*
X0184461Y0050378D02*
X0125800Y0050378D01*
X0125800Y0049779D02*
X0184709Y0049779D01*
X0184956Y0049181D02*
X0125759Y0049181D01*
X0125161Y0048582D02*
X0185502Y0048582D01*
X0186115Y0047984D02*
X0125000Y0047984D01*
X0125000Y0047385D02*
X0199500Y0047385D01*
X0199500Y0046787D02*
X0125000Y0046787D01*
X0125000Y0046188D02*
X0199500Y0046188D01*
X0199500Y0045590D02*
X0125000Y0045590D01*
X0125000Y0044991D02*
X0187020Y0044991D01*
X0187524Y0045200D02*
X0186091Y0044606D01*
X0184994Y0043509D01*
X0184400Y0042076D01*
X0184400Y0040524D01*
X0184994Y0039091D01*
X0186091Y0037994D01*
X0187524Y0037400D01*
X0195076Y0037400D01*
X0196509Y0037994D01*
X0197606Y0039091D01*
X0198200Y0040524D01*
X0198200Y0042076D01*
X0197606Y0043509D01*
X0196509Y0044606D01*
X0195076Y0045200D01*
X0187524Y0045200D01*
X0185877Y0044393D02*
X0125000Y0044393D01*
X0125000Y0043794D02*
X0185279Y0043794D01*
X0184864Y0043196D02*
X0125000Y0043196D01*
X0125331Y0042597D02*
X0184616Y0042597D01*
X0184400Y0041999D02*
X0125800Y0041999D01*
X0125800Y0041400D02*
X0184400Y0041400D01*
X0184400Y0040802D02*
X0125800Y0040802D01*
X0125532Y0040203D02*
X0184533Y0040203D01*
X0184781Y0039605D02*
X0124933Y0039605D01*
X0122667Y0039605D02*
X0119933Y0039605D01*
X0120532Y0040203D02*
X0122068Y0040203D01*
X0121800Y0040802D02*
X0120800Y0040802D01*
X0120800Y0041400D02*
X0121800Y0041400D01*
X0121800Y0041999D02*
X0120800Y0041999D01*
X0120331Y0042597D02*
X0122269Y0042597D01*
X0122600Y0043196D02*
X0120000Y0043196D01*
X0120000Y0043794D02*
X0122600Y0043794D01*
X0122600Y0044393D02*
X0120000Y0044393D01*
X0120000Y0044991D02*
X0122600Y0044991D01*
X0122600Y0045590D02*
X0120000Y0045590D01*
X0120000Y0046188D02*
X0122600Y0046188D01*
X0122600Y0046787D02*
X0120000Y0046787D01*
X0120000Y0047385D02*
X0122600Y0047385D01*
X0122600Y0047984D02*
X0120000Y0047984D01*
X0120161Y0048582D02*
X0122439Y0048582D01*
X0121841Y0049181D02*
X0120759Y0049181D01*
X0120800Y0049779D02*
X0121800Y0049779D01*
X0121800Y0050378D02*
X0120800Y0050378D01*
X0120702Y0050976D02*
X0121898Y0050976D01*
X0122497Y0051575D02*
X0120103Y0051575D01*
X0118800Y0050050D02*
X0118800Y0041300D01*
X0123800Y0041300D02*
X0123800Y0050050D01*
X0116841Y0049181D02*
X0003100Y0049181D01*
X0003100Y0049779D02*
X0048117Y0049779D01*
X0048597Y0049300D02*
X0050253Y0049300D01*
X0051053Y0050100D01*
X0054047Y0050100D01*
X0054847Y0049300D01*
X0056503Y0049300D01*
X0057675Y0050472D01*
X0057675Y0052128D01*
X0056503Y0053300D01*
X0054847Y0053300D01*
X0054047Y0052500D01*
X0051053Y0052500D01*
X0050253Y0053300D01*
X0048597Y0053300D01*
X0047425Y0052128D01*
X0047425Y0050472D01*
X0048597Y0049300D01*
X0047519Y0050378D02*
X0003100Y0050378D01*
X0003100Y0050976D02*
X0047425Y0050976D01*
X0047425Y0051575D02*
X0003100Y0051575D01*
X0003100Y0052173D02*
X0047470Y0052173D01*
X0048069Y0052772D02*
X0003100Y0052772D01*
X0003100Y0053370D02*
X0184936Y0053370D01*
X0184688Y0052772D02*
X0082031Y0052772D01*
X0079319Y0052772D02*
X0073281Y0052772D01*
X0070569Y0052772D02*
X0057031Y0052772D01*
X0057630Y0052173D02*
X0069970Y0052173D01*
X0069925Y0051575D02*
X0057675Y0051575D01*
X0057675Y0050976D02*
X0069925Y0050976D01*
X0070019Y0050378D02*
X0057581Y0050378D01*
X0056983Y0049779D02*
X0070617Y0049779D01*
X0055675Y0051300D02*
X0049425Y0051300D01*
X0050781Y0052772D02*
X0054319Y0052772D01*
X0054367Y0049779D02*
X0050733Y0049779D01*
X0073032Y0040203D02*
X0079568Y0040203D01*
X0079303Y0039006D02*
X0073297Y0039006D01*
X0071925Y0037550D02*
X0080675Y0037550D01*
X0082675Y0037809D02*
X0186536Y0037809D01*
X0185677Y0038408D02*
X0082646Y0038408D01*
X0082047Y0039006D02*
X0185078Y0039006D01*
X0196064Y0037809D02*
X0199500Y0037809D01*
X0199500Y0037211D02*
X0082675Y0037211D01*
X0082566Y0036612D02*
X0199500Y0036612D01*
X0199500Y0036014D02*
X0081967Y0036014D01*
X0079383Y0036014D02*
X0073217Y0036014D01*
X0073112Y0034817D02*
X0079488Y0034817D01*
X0081862Y0034817D02*
X0186599Y0034817D01*
X0185703Y0034218D02*
X0082460Y0034218D01*
X0082675Y0033620D02*
X0185104Y0033620D01*
X0184792Y0033021D02*
X0082675Y0033021D01*
X0082675Y0032423D02*
X0184544Y0032423D01*
X0184400Y0031824D02*
X0082152Y0031824D01*
X0081554Y0031226D02*
X0184400Y0031226D01*
X0195642Y0027634D02*
X0199500Y0027634D01*
X0199500Y0028233D02*
X0196748Y0028233D01*
X0197347Y0028832D02*
X0199500Y0028832D01*
X0199500Y0029430D02*
X0197747Y0029430D01*
X0197995Y0030029D02*
X0199500Y0030029D01*
X0199500Y0030627D02*
X0198200Y0030627D01*
X0198200Y0031226D02*
X0199500Y0031226D01*
X0199500Y0031824D02*
X0198200Y0031824D01*
X0198056Y0032423D02*
X0199500Y0032423D01*
X0199500Y0033021D02*
X0197808Y0033021D01*
X0197496Y0033620D02*
X0199500Y0033620D01*
X0199500Y0034218D02*
X0196897Y0034218D01*
X0196001Y0034817D02*
X0199500Y0034817D01*
X0199500Y0035415D02*
X0003100Y0035415D01*
X0003100Y0053969D02*
X0185454Y0053969D01*
X0186052Y0054568D02*
X0003100Y0054568D01*
X0003100Y0055166D02*
X0187442Y0055166D01*
X0195158Y0055166D02*
X0199500Y0055166D01*
X0199500Y0054568D02*
X0196548Y0054568D01*
X0197146Y0053969D02*
X0199500Y0053969D01*
X0199500Y0053370D02*
X0197664Y0053370D01*
X0197912Y0052772D02*
X0199500Y0052772D01*
X0199500Y0052173D02*
X0198160Y0052173D01*
X0198200Y0051575D02*
X0199500Y0051575D01*
X0199500Y0050976D02*
X0198200Y0050976D01*
X0198139Y0050378D02*
X0199500Y0050378D01*
X0199500Y0049779D02*
X0197891Y0049779D01*
X0197644Y0049181D02*
X0199500Y0049181D01*
X0199500Y0048582D02*
X0197098Y0048582D01*
X0196485Y0047984D02*
X0199500Y0047984D01*
X0199500Y0044991D02*
X0195580Y0044991D01*
X0196723Y0044393D02*
X0199500Y0044393D01*
X0199500Y0043794D02*
X0197321Y0043794D01*
X0197736Y0043196D02*
X0199500Y0043196D01*
X0199500Y0042597D02*
X0197984Y0042597D01*
X0198200Y0041999D02*
X0199500Y0041999D01*
X0199500Y0041400D02*
X0198200Y0041400D01*
X0198200Y0040802D02*
X0199500Y0040802D01*
X0199500Y0040203D02*
X0198067Y0040203D01*
X0197819Y0039605D02*
X0199500Y0039605D01*
X0199500Y0039006D02*
X0197522Y0039006D01*
X0196923Y0038408D02*
X0199500Y0038408D01*
X0199500Y0055765D02*
X0003100Y0055765D01*
X0003100Y0056363D02*
X0199500Y0056363D01*
X0199500Y0056962D02*
X0003100Y0056962D01*
X0003100Y0057560D02*
X0199500Y0057560D01*
X0199500Y0058159D02*
X0003100Y0058159D01*
X0003100Y0058757D02*
X0199500Y0058757D01*
X0199500Y0059356D02*
X0003100Y0059356D01*
X0003100Y0059954D02*
X0199500Y0059954D01*
X0199500Y0060553D02*
X0003100Y0060553D01*
X0003100Y0061151D02*
X0199500Y0061151D01*
X0199500Y0061750D02*
X0003100Y0061750D01*
X0003100Y0062348D02*
X0199500Y0062348D01*
X0199500Y0062947D02*
X0198272Y0062947D01*
X0198994Y0063545D02*
X0199500Y0063545D01*
X0194328Y0062947D02*
X0188272Y0062947D01*
X0188994Y0063545D02*
X0193606Y0063545D01*
X0193023Y0064144D02*
X0189577Y0064144D01*
X0189825Y0064742D02*
X0192775Y0064742D01*
X0192527Y0065341D02*
X0190073Y0065341D01*
X0190153Y0065939D02*
X0192447Y0065939D01*
X0192447Y0066538D02*
X0190153Y0066538D01*
X0190124Y0067136D02*
X0192476Y0067136D01*
X0192724Y0067735D02*
X0189876Y0067735D01*
X0189628Y0068333D02*
X0192972Y0068333D01*
X0193483Y0068932D02*
X0189117Y0068932D01*
X0183483Y0068932D02*
X0179117Y0068932D01*
X0179628Y0068333D02*
X0182972Y0068333D01*
X0182724Y0067735D02*
X0179876Y0067735D01*
X0180124Y0067136D02*
X0182476Y0067136D01*
X0182447Y0066538D02*
X0180153Y0066538D01*
X0180153Y0065939D02*
X0182447Y0065939D01*
X0182527Y0065341D02*
X0180073Y0065341D01*
X0179825Y0064742D02*
X0182775Y0064742D01*
X0183023Y0064144D02*
X0179577Y0064144D01*
X0178994Y0063545D02*
X0183606Y0063545D01*
X0184328Y0062947D02*
X0178272Y0062947D01*
X0174328Y0062947D02*
X0168272Y0062947D01*
X0168994Y0063545D02*
X0173606Y0063545D01*
X0173023Y0064144D02*
X0169577Y0064144D01*
X0169825Y0064742D02*
X0172775Y0064742D01*
X0172527Y0065341D02*
X0170073Y0065341D01*
X0170153Y0065939D02*
X0172447Y0065939D01*
X0172447Y0066538D02*
X0170153Y0066538D01*
X0170124Y0067136D02*
X0172476Y0067136D01*
X0172724Y0067735D02*
X0169876Y0067735D01*
X0169628Y0068333D02*
X0172972Y0068333D01*
X0173483Y0068932D02*
X0169117Y0068932D01*
X0163483Y0068932D02*
X0159117Y0068932D01*
X0159628Y0068333D02*
X0162972Y0068333D01*
X0162724Y0067735D02*
X0159876Y0067735D01*
X0160124Y0067136D02*
X0162476Y0067136D01*
X0162447Y0066538D02*
X0160153Y0066538D01*
X0160153Y0065939D02*
X0162447Y0065939D01*
X0162527Y0065341D02*
X0160073Y0065341D01*
X0159825Y0064742D02*
X0162775Y0064742D01*
X0163023Y0064144D02*
X0159577Y0064144D01*
X0158994Y0063545D02*
X0163606Y0063545D01*
X0164328Y0062947D02*
X0158272Y0062947D01*
X0154328Y0062947D02*
X0148272Y0062947D01*
X0148994Y0063545D02*
X0153606Y0063545D01*
X0153023Y0064144D02*
X0149577Y0064144D01*
X0149825Y0064742D02*
X0152775Y0064742D01*
X0152527Y0065341D02*
X0150073Y0065341D01*
X0150153Y0065939D02*
X0152447Y0065939D01*
X0152447Y0066538D02*
X0150153Y0066538D01*
X0150124Y0067136D02*
X0152476Y0067136D01*
X0152724Y0067735D02*
X0149876Y0067735D01*
X0149628Y0068333D02*
X0152972Y0068333D01*
X0153483Y0068932D02*
X0149117Y0068932D01*
X0143483Y0068932D02*
X0139117Y0068932D01*
X0139628Y0068333D02*
X0142972Y0068333D01*
X0142724Y0067735D02*
X0139876Y0067735D01*
X0140124Y0067136D02*
X0142476Y0067136D01*
X0142447Y0066538D02*
X0140153Y0066538D01*
X0140153Y0065939D02*
X0142447Y0065939D01*
X0142527Y0065341D02*
X0140073Y0065341D01*
X0139825Y0064742D02*
X0142775Y0064742D01*
X0143023Y0064144D02*
X0139577Y0064144D01*
X0138994Y0063545D02*
X0143606Y0063545D01*
X0144328Y0062947D02*
X0138272Y0062947D01*
X0134328Y0062947D02*
X0128272Y0062947D01*
X0128994Y0063545D02*
X0133606Y0063545D01*
X0133023Y0064144D02*
X0129577Y0064144D01*
X0129825Y0064742D02*
X0132775Y0064742D01*
X0132527Y0065341D02*
X0130073Y0065341D01*
X0130153Y0065939D02*
X0132447Y0065939D01*
X0132447Y0066538D02*
X0130153Y0066538D01*
X0130124Y0067136D02*
X0132476Y0067136D01*
X0132724Y0067735D02*
X0129876Y0067735D01*
X0129628Y0068333D02*
X0132972Y0068333D01*
X0133483Y0068932D02*
X0129117Y0068932D01*
X0123483Y0068932D02*
X0119117Y0068932D01*
X0119628Y0068333D02*
X0122972Y0068333D01*
X0122724Y0067735D02*
X0119876Y0067735D01*
X0120124Y0067136D02*
X0122476Y0067136D01*
X0122447Y0066538D02*
X0120153Y0066538D01*
X0120153Y0065939D02*
X0122447Y0065939D01*
X0122527Y0065341D02*
X0120073Y0065341D01*
X0119825Y0064742D02*
X0122775Y0064742D01*
X0123023Y0064144D02*
X0119577Y0064144D01*
X0118994Y0063545D02*
X0123606Y0063545D01*
X0124328Y0062947D02*
X0118272Y0062947D01*
X0114328Y0062947D02*
X0108272Y0062947D01*
X0108994Y0063545D02*
X0113606Y0063545D01*
X0113023Y0064144D02*
X0109577Y0064144D01*
X0109825Y0064742D02*
X0112775Y0064742D01*
X0112527Y0065341D02*
X0110073Y0065341D01*
X0110153Y0065939D02*
X0112447Y0065939D01*
X0112447Y0066538D02*
X0110153Y0066538D01*
X0110124Y0067136D02*
X0112476Y0067136D01*
X0112724Y0067735D02*
X0109876Y0067735D01*
X0109628Y0068333D02*
X0112972Y0068333D01*
X0113483Y0068932D02*
X0109117Y0068932D01*
X0103483Y0068932D02*
X0099117Y0068932D01*
X0099628Y0068333D02*
X0102972Y0068333D01*
X0102724Y0067735D02*
X0099876Y0067735D01*
X0100124Y0067136D02*
X0102476Y0067136D01*
X0102447Y0066538D02*
X0100153Y0066538D01*
X0100153Y0065939D02*
X0102447Y0065939D01*
X0102527Y0065341D02*
X0100073Y0065341D01*
X0099825Y0064742D02*
X0102775Y0064742D01*
X0103023Y0064144D02*
X0099577Y0064144D01*
X0098994Y0063545D02*
X0103606Y0063545D01*
X0104328Y0062947D02*
X0098272Y0062947D01*
X0094328Y0062947D02*
X0088272Y0062947D01*
X0088994Y0063545D02*
X0093606Y0063545D01*
X0093023Y0064144D02*
X0089577Y0064144D01*
X0089825Y0064742D02*
X0092775Y0064742D01*
X0092527Y0065341D02*
X0090073Y0065341D01*
X0090153Y0065939D02*
X0092447Y0065939D01*
X0092447Y0066538D02*
X0090153Y0066538D01*
X0090124Y0067136D02*
X0092476Y0067136D01*
X0092724Y0067735D02*
X0089876Y0067735D01*
X0089628Y0068333D02*
X0092972Y0068333D01*
X0093483Y0068932D02*
X0089117Y0068932D01*
X0083483Y0068932D02*
X0079117Y0068932D01*
X0079628Y0068333D02*
X0082972Y0068333D01*
X0082724Y0067735D02*
X0079876Y0067735D01*
X0080124Y0067136D02*
X0082476Y0067136D01*
X0082447Y0066538D02*
X0080153Y0066538D01*
X0080153Y0065939D02*
X0082447Y0065939D01*
X0082527Y0065341D02*
X0080073Y0065341D01*
X0079825Y0064742D02*
X0082775Y0064742D01*
X0083023Y0064144D02*
X0079577Y0064144D01*
X0078994Y0063545D02*
X0083606Y0063545D01*
X0084328Y0062947D02*
X0078272Y0062947D01*
X0074328Y0062947D02*
X0068272Y0062947D01*
X0068994Y0063545D02*
X0073606Y0063545D01*
X0073023Y0064144D02*
X0069577Y0064144D01*
X0069825Y0064742D02*
X0072775Y0064742D01*
X0072527Y0065341D02*
X0070073Y0065341D01*
X0070153Y0065939D02*
X0072447Y0065939D01*
X0072447Y0066538D02*
X0070153Y0066538D01*
X0070124Y0067136D02*
X0072476Y0067136D01*
X0072724Y0067735D02*
X0069876Y0067735D01*
X0069628Y0068333D02*
X0072972Y0068333D01*
X0073483Y0068932D02*
X0069117Y0068932D01*
X0063483Y0068932D02*
X0059117Y0068932D01*
X0059628Y0068333D02*
X0062972Y0068333D01*
X0062724Y0067735D02*
X0059876Y0067735D01*
X0060124Y0067136D02*
X0062476Y0067136D01*
X0062447Y0066538D02*
X0060153Y0066538D01*
X0060153Y0065939D02*
X0062447Y0065939D01*
X0062527Y0065341D02*
X0060073Y0065341D01*
X0059825Y0064742D02*
X0062775Y0064742D01*
X0063023Y0064144D02*
X0059577Y0064144D01*
X0058994Y0063545D02*
X0063606Y0063545D01*
X0064328Y0062947D02*
X0058272Y0062947D01*
X0054328Y0062947D02*
X0048272Y0062947D01*
X0048994Y0063545D02*
X0053606Y0063545D01*
X0053023Y0064144D02*
X0049577Y0064144D01*
X0049825Y0064742D02*
X0052775Y0064742D01*
X0052527Y0065341D02*
X0050073Y0065341D01*
X0050153Y0065939D02*
X0052447Y0065939D01*
X0052447Y0066538D02*
X0050153Y0066538D01*
X0050124Y0067136D02*
X0052476Y0067136D01*
X0052724Y0067735D02*
X0049876Y0067735D01*
X0049628Y0068333D02*
X0052972Y0068333D01*
X0053483Y0068932D02*
X0049117Y0068932D01*
X0043483Y0068932D02*
X0039117Y0068932D01*
X0039628Y0068333D02*
X0042972Y0068333D01*
X0042724Y0067735D02*
X0039876Y0067735D01*
X0040124Y0067136D02*
X0042476Y0067136D01*
X0042447Y0066538D02*
X0040153Y0066538D01*
X0040153Y0065939D02*
X0042447Y0065939D01*
X0042527Y0065341D02*
X0040073Y0065341D01*
X0039825Y0064742D02*
X0042775Y0064742D01*
X0043023Y0064144D02*
X0039577Y0064144D01*
X0038994Y0063545D02*
X0043606Y0063545D01*
X0044328Y0062947D02*
X0038272Y0062947D01*
X0034328Y0062947D02*
X0028272Y0062947D01*
X0028994Y0063545D02*
X0033606Y0063545D01*
X0033023Y0064144D02*
X0029577Y0064144D01*
X0029825Y0064742D02*
X0032775Y0064742D01*
X0032527Y0065341D02*
X0030073Y0065341D01*
X0030153Y0065939D02*
X0032447Y0065939D01*
X0032447Y0066538D02*
X0030153Y0066538D01*
X0030124Y0067136D02*
X0032476Y0067136D01*
X0032724Y0067735D02*
X0029876Y0067735D01*
X0029628Y0068333D02*
X0032972Y0068333D01*
X0033483Y0068932D02*
X0029117Y0068932D01*
X0023483Y0068932D02*
X0019117Y0068932D01*
X0019628Y0068333D02*
X0022972Y0068333D01*
X0022724Y0067735D02*
X0019876Y0067735D01*
X0020124Y0067136D02*
X0022476Y0067136D01*
X0022447Y0066538D02*
X0020153Y0066538D01*
X0020153Y0065939D02*
X0022447Y0065939D01*
X0022527Y0065341D02*
X0020073Y0065341D01*
X0019825Y0064742D02*
X0022775Y0064742D01*
X0023023Y0064144D02*
X0019577Y0064144D01*
X0018994Y0063545D02*
X0023606Y0063545D01*
X0024328Y0062947D02*
X0018272Y0062947D01*
X0014328Y0062947D02*
X0008272Y0062947D01*
X0008994Y0063545D02*
X0013606Y0063545D01*
X0013023Y0064144D02*
X0009577Y0064144D01*
X0009825Y0064742D02*
X0012775Y0064742D01*
X0012527Y0065341D02*
X0010073Y0065341D01*
X0010153Y0065939D02*
X0012447Y0065939D01*
X0012447Y0066538D02*
X0010153Y0066538D01*
X0010124Y0067136D02*
X0012476Y0067136D01*
X0012724Y0067735D02*
X0009876Y0067735D01*
X0009628Y0068333D02*
X0012972Y0068333D01*
X0013483Y0068932D02*
X0009117Y0068932D01*
X0003606Y0063545D02*
X0003100Y0063545D01*
X0003100Y0062947D02*
X0004328Y0062947D01*
X0071925Y0033175D02*
X0080675Y0033175D01*
X0079197Y0031824D02*
X0073402Y0031824D01*
X0072804Y0031226D02*
X0079796Y0031226D01*
X0072465Y0005490D02*
X0070477Y0005490D01*
X0070314Y0004891D02*
X0072713Y0004891D01*
X0072961Y0004293D02*
X0070050Y0004293D01*
X0069663Y0003694D02*
X0073457Y0003694D01*
D14*
X0093800Y0023175D03*
X0080675Y0033175D03*
X0071925Y0033175D03*
X0064425Y0036300D03*
X0071925Y0037550D03*
X0080675Y0037550D03*
X0080675Y0041925D03*
X0071925Y0041925D03*
X0071925Y0046300D03*
X0080675Y0046300D03*
X0080675Y0051300D03*
X0071925Y0051300D03*
X0063800Y0055675D03*
X0055675Y0051300D03*
X0049425Y0051300D03*
X0118800Y0050050D03*
X0123800Y0050050D03*
X0143175Y0047550D03*
X0123800Y0041300D03*
X0118800Y0041300D03*
X0177550Y0024425D03*
M02*
