G75*
%MOIN*%
%OFA0B0*%
%FSLAX25Y25*%
%IPPOS*%
%LPD*%
%AMOC8*
5,1,8,0,0,1.08239X$1,22.5*
%
%ADD10C,0.06500*%
%ADD11R,0.06406X0.06406*%
%ADD12C,0.06406*%
D10*
X0188300Y0021300D02*
X0194300Y0021300D01*
X0194300Y0031300D02*
X0188300Y0031300D01*
X0188300Y0041300D02*
X0194300Y0041300D01*
X0194300Y0051300D02*
X0188300Y0051300D01*
D11*
X0006300Y0006300D03*
D12*
X0016300Y0006300D03*
X0026300Y0006300D03*
X0036300Y0006300D03*
X0046300Y0006300D03*
X0056300Y0006300D03*
X0066300Y0006300D03*
X0076300Y0006300D03*
X0086300Y0006300D03*
X0096300Y0006300D03*
X0106300Y0006300D03*
X0116300Y0006300D03*
X0126300Y0006300D03*
X0136300Y0006300D03*
X0146300Y0006300D03*
X0156300Y0006300D03*
X0166300Y0006300D03*
X0176300Y0006300D03*
X0186300Y0006300D03*
X0196300Y0006300D03*
X0196300Y0066300D03*
X0186300Y0066300D03*
X0176300Y0066300D03*
X0166300Y0066300D03*
X0156300Y0066300D03*
X0146300Y0066300D03*
X0136300Y0066300D03*
X0126300Y0066300D03*
X0116300Y0066300D03*
X0106300Y0066300D03*
X0096300Y0066300D03*
X0086300Y0066300D03*
X0076300Y0066300D03*
X0066300Y0066300D03*
X0056300Y0066300D03*
X0046300Y0066300D03*
X0036300Y0066300D03*
X0026300Y0066300D03*
X0016300Y0066300D03*
X0006300Y0066300D03*
M02*
